<svg width="86" height="89" viewBox="0 0 86 89" fill="none" xmlns="http://www.w3.org/2000/svg">
<path d="M84.6687 40.7827C84.5908 40.4104 84.3261 40.0691 83.8278 40.0226C78.8132 39.6193 73.7832 38.8747 68.9711 37.3234C65.218 36.1289 61.3092 35.2602 60.4215 30.7615C59.7052 27.1471 61.9321 24.9908 63.9099 22.3692C63.9566 22.3071 63.9722 22.2296 63.9566 22.1675C64.3148 21.8107 63.8164 21.1437 63.3804 21.4384C59.2535 24.1221 54.9865 27.1781 50.3925 23.2999C47.3713 20.7559 46.8886 17.312 45.9542 13.7752C44.8174 9.52468 44.4436 5.18114 43.8518 0.853104C43.8363 0.744515 43.774 0.666951 43.6961 0.6049C43.6961 -0.0931697 42.5748 -0.248296 42.4347 0.465287C41.2979 5.81716 40.3635 11.2311 38.8062 16.4744C37.4669 20.9575 36.0498 26.6662 30.241 26.4955C25.6003 26.3714 24.0118 23.5792 20.8038 21.0506C19.9317 20.368 18.7637 21.4539 19.5579 22.2916C21.7537 24.603 23.7938 26.5421 24.043 29.9238C24.261 32.9023 22.5168 35.7876 20.1186 37.5716C17.331 39.6503 12.737 41.2481 9.20189 40.8603C6.5389 40.5655 3.8292 40.55 1.15064 40.8603C-0.344368 41.0309 -0.422233 43.1872 1.15064 43.2337C3.93821 43.3113 6.75692 43.3888 9.54449 43.3113C11.8649 43.2492 15.4155 43.637 17.4867 44.7695C18.0006 45.0487 18.4834 45.421 18.935 45.8088C20.7259 47.267 22.4857 48.8803 23.4979 50.959C26.6904 57.5519 21.2398 62.0506 17.3777 66.5648C16.6769 67.3869 17.8449 68.5814 18.5768 67.7592C20.7103 65.3858 22.875 62.2367 25.974 61.1819C29.1821 60.096 32.9507 60.5459 35.7071 62.5625C36.2055 62.9348 36.6727 63.3381 37.0309 63.8501C37.4202 64.393 37.6538 65.0135 37.9029 65.634C38.8062 67.9919 39.6004 70.3188 40.0832 72.8009C41.0487 77.7804 41.3913 82.8531 41.7962 87.8947C41.9052 89.3529 44.1944 89.3839 44.101 87.8947C43.8363 82.9306 44.1477 77.9356 45.16 73.0646C46.2345 67.9144 46.4992 61.7403 53.0243 60.8406C57.2446 60.2511 60.2658 62.7642 63.3337 65.1997C64.0033 65.7271 64.7975 64.9515 64.2992 64.2844C64.4549 64.0517 64.4861 63.726 64.2525 63.4467C61.5428 60.2666 58.7241 57.071 59.8142 52.6034C60.9977 47.7169 65.6073 46.2897 69.9522 45.0797C74.7331 43.7301 79.7009 43.1406 84.622 42.5822C85.79 42.4581 85.8055 40.9378 84.6687 40.7827Z" fill="#2C2C2C"/>
</svg>
