<svg width="50" height="50" viewBox="0 0 50 50" fill="none" xmlns="http://www.w3.org/2000/svg">
<path d="M46.6168 47.4199C45.8196 44.9888 45.1873 42.5076 44.4066 40.0714C43.8065 38.199 43.2547 36.017 41.5231 34.9048C39.4182 33.5529 36.814 32.6352 34.4549 31.8463C33.6614 31.6299 32.8834 31.3606 32.1258 31.0404C32.0548 30.9761 31.9699 30.9288 31.8779 30.9022C31.5018 30.6628 31.1808 30.3465 30.936 29.9741C30.6911 29.6016 30.5279 29.1815 30.4572 28.7414C30.1397 27.4156 30.2261 25.8612 30.2006 24.4774C32.6791 22.4329 33.3686 18.9456 33.3496 15.4391C34.3588 15.1844 35.2172 13.6992 35.2038 12.751C35.195 12.3857 35.0882 12.0295 34.8946 11.7195C34.701 11.4096 34.4277 11.1574 34.1033 10.9892C35.9672 8.70935 34.229 2.8399 31.2564 4.1115C31.1735 3.74329 31.0097 3.39816 30.7768 3.10112C30.544 2.80408 30.2479 2.56256 29.9102 2.39409C29.0363 2.03048 28.3324 2.59592 27.7698 3.21619C27.5213 3.49013 27.9139 3.88932 28.178 3.62441C28.6797 3.12114 29.3 2.64089 29.9682 3.21637C30.3797 3.57068 30.4563 4.08924 30.6756 4.54471C30.6604 4.61614 30.6656 4.69041 30.6905 4.75904C30.7155 4.82768 30.7592 4.88792 30.8167 4.93291C30.8742 4.97791 30.9432 5.00584 31.0159 5.01352C31.0885 5.02121 31.1618 5.00834 31.2275 4.97638C33.2347 4.1011 33.7888 6.98565 33.7901 8.2494C33.7911 9.27388 33.3921 9.97351 32.9934 10.8094L32.9784 10.8113C32.9527 10.7248 32.9 10.6488 32.8279 10.5945C32.7558 10.5403 32.6682 10.5106 32.5779 10.5099C31.9951 10.4147 31.4492 10.1627 30.9987 9.78086C30.5482 9.39902 30.2101 8.90176 30.0207 8.3424C29.938 8.10491 29.5359 7.97697 29.4132 8.263C29.3654 8.42425 29.2787 8.5713 29.1607 8.69124C28.8131 7.91674 28.6202 7.08175 28.5928 6.23324C28.5724 5.9157 28.0537 5.79487 27.9979 6.15274C27.9956 6.16756 27.9952 6.18321 27.993 6.19812C27.3537 7.12784 26.5998 7.97334 25.7492 8.71468C25.3097 9.08455 24.8109 9.37764 24.2739 9.58162C23.8688 9.73296 22.2156 10.2107 21.746 9.6421C21.9056 9.44469 22.0583 9.23958 22.2066 9.02753C22.3808 8.77831 21.974 8.45862 21.7813 8.69913C21.6076 8.91315 21.4202 9.11567 21.2203 9.30544C21.1843 9.32605 21.1531 9.35403 21.1286 9.38754C20.6545 9.82668 20.126 10.2032 19.5561 10.508C18.8867 10.8664 17.9852 10.9657 17.3914 11.4313C17.347 11.4012 17.2951 11.3838 17.2415 11.381C17.1879 11.3782 17.1346 11.3901 17.0873 11.4155C17.04 11.4409 17.0005 11.4787 16.9732 11.5249C16.9459 11.5712 16.9318 11.624 16.9323 11.6776C16.9323 11.7163 16.9311 11.7566 16.9308 11.7955C14.8941 8.65539 12.9465 4.60565 17.1361 2.03923C20.3283 0.0836924 24.5063 0.841024 27.3114 3.11799C27.6111 3.36123 28.0355 2.96364 27.7447 2.68468C24.6134 -0.321838 19.3823 -1.05235 15.8422 1.77856C12.4833 4.46457 13.306 9.35872 16.1387 12.0763C15.3186 12.4007 14.8399 13.4987 14.8616 14.3793C14.8871 15.4016 15.717 17.0486 16.8659 16.8388C16.9313 19.0034 17.2445 21.1464 18.3044 22.8702C18.6997 23.5156 19.1977 24.0921 19.7788 24.577C19.7435 25.7257 19.7199 26.8748 19.613 28.02C19.3792 30.5256 18.0009 31.0414 15.934 31.7116C13.4398 32.5203 10.6813 33.4797 8.46285 34.9049C6.81797 35.9615 6.28901 37.9212 5.70008 39.7028C4.84555 42.2876 4.19103 44.9344 3.33782 47.5197C3.18895 47.971 3.74709 48.21 4.0515 47.9827C7.15066 48.9787 10.5081 49.197 13.7254 49.5402C17.409 49.8932 21.1093 50.0431 24.8094 49.9894C32.0146 50.0186 39.2067 49.3736 46.2917 48.063C46.3135 48.0604 46.3351 48.0565 46.3563 48.0512C46.4187 48.039 46.4818 48.0294 46.5442 48.0171C46.8345 47.9595 46.8309 47.5414 46.6168 47.4199ZM34.3494 13.2835C34.1116 13.7528 33.7602 14.1552 33.3274 14.4542C33.2893 13.5181 33.2075 12.5913 33.1031 11.6991C33.1258 11.697 33.1482 11.6922 33.1698 11.6848C33.2772 11.6419 33.3811 11.5909 33.4806 11.5322C34.1962 11.8082 34.7324 12.3989 34.3494 13.2835ZM15.7709 14.7892C15.459 14.0567 15.7119 12.5816 16.7609 12.6135L16.7694 12.6203C16.8116 12.6523 16.8633 12.6692 16.9162 12.6683C16.8928 13.6569 16.853 14.7006 16.8511 15.7568C16.8212 15.7522 16.7932 15.748 16.7608 15.7431C16.5252 15.6879 16.3089 15.5701 16.1347 15.4023C15.9604 15.2344 15.8348 15.0225 15.7709 14.7892ZM18.3018 20.6127C17.504 17.9227 17.7289 14.7672 17.5589 11.9539C18.3736 12.1537 19.4364 11.5609 20.0891 11.1512C20.4961 10.8928 20.8716 10.5878 21.2079 10.2426C21.7835 10.8264 23.5597 10.6506 24.1043 10.4882C25.8257 9.97529 26.97 8.60075 27.9604 7.17868C27.9984 8.00783 28.2923 8.80486 28.8017 9.46016C28.8562 9.51486 28.9273 9.54992 29.0038 9.55982C29.0804 9.56973 29.1581 9.55393 29.2247 9.51489C29.3657 9.40832 29.497 9.28951 29.6172 9.15985C29.8425 9.64887 30.1751 10.0809 30.5903 10.4238C31.0055 10.7667 31.4925 11.0117 32.0153 11.1407C32.6296 16.4466 33.2436 23.826 26.5215 25.3311C24.8075 25.7523 22.9972 25.497 21.4665 24.6183C19.9359 23.7396 18.8025 22.3051 18.3018 20.6127ZM19.8862 30.8285C20.7 29.4333 20.5493 26.8846 20.4138 25.0453C22.1722 26.1345 24.2742 26.5271 26.3072 26.1462C27.4725 25.9759 28.5884 25.5606 29.5815 24.9277C29.4458 26.7922 29.2835 29.3468 30.0996 30.8285C30.2487 31.0887 30.4477 31.3169 30.6852 31.4999C26.7189 34.2008 22.5688 33.8406 18.2728 32.0804C18.9311 31.8472 19.4968 31.4082 19.8862 30.8285H19.8862ZM4.29069 47.4955C5.08506 44.8524 5.81411 42.185 6.78107 39.5989C7.52221 37.6166 8.08711 36.3243 10.056 35.2473C11.647 34.4079 13.2971 33.6854 14.9931 33.0857C15.645 32.8447 16.5323 32.6624 17.3889 32.3982C21.4899 35.8623 27.5713 35.0543 31.6813 32.0747C32.7824 32.546 34.134 32.7682 34.9929 33.0857C36.5447 33.6643 38.0654 34.323 39.549 35.0591C41.6668 36.1019 42.4099 37.4745 43.2048 39.5989C44.1692 42.1763 44.8963 44.8351 45.6876 47.4695C38.8778 48.2267 32.115 48.863 25.2532 48.9422C18.2578 49.0229 11.1514 48.941 4.29069 47.4955Z" fill="#FF4C60"/>
<path d="M25.0182 21.1823C25.4282 21.1066 25.8141 20.9342 26.144 20.6794C26.474 20.4246 26.7383 20.0948 26.9151 19.7173C27.02 19.4337 26.6452 19.2961 26.4567 19.4504C25.9499 19.8651 25.5949 20.2699 24.9241 20.4174C24.5657 20.4939 24.1952 20.494 23.8368 20.4178C23.4783 20.3417 23.1399 20.1908 22.8436 19.9752C22.5719 19.7788 22.2179 20.2314 22.4823 20.4434C22.819 20.7544 23.2233 20.983 23.6634 21.1112C24.1034 21.2394 24.5672 21.2637 25.0182 21.1823Z" fill="#FF4C60"/>
<path d="M24.9433 18.1804C24.9828 18.19 25.0243 18.1866 25.0616 18.1706C25.099 18.1547 25.1302 18.1272 25.1506 18.0921C25.1711 18.057 25.1796 18.0162 25.175 17.9759C25.1704 17.9356 25.1529 17.8978 25.1252 17.8682C24.796 17.5334 24.3956 17.2772 23.9536 17.1187C24.0379 16.6261 24.4127 16.0709 24.5295 15.5995C24.6503 15.0873 24.684 14.5584 24.6294 14.035C24.6274 13.9868 24.6068 13.9412 24.572 13.9078C24.5372 13.8744 24.4908 13.8557 24.4426 13.8557C24.3943 13.8557 24.3479 13.8744 24.3131 13.9078C24.2783 13.9412 24.2577 13.9868 24.2557 14.035C24.2164 14.7207 24.0551 15.3939 23.7794 16.0229C23.6238 16.3349 23.5164 16.6687 23.4609 17.0129C23.3833 17.7278 24.3432 18.0749 24.9433 18.1804Z" fill="#FF4C60"/>
<path d="M21.2018 13.1659C21.2155 13.032 21.2194 12.8972 21.2137 12.7627C21.1973 12.6316 21.2045 12.4986 21.2351 12.3701C21.2532 12.2948 21.2412 12.2155 21.2019 12.1489C21.1626 12.0823 21.0989 12.0335 21.0243 12.0129C20.9497 11.9924 20.87 12.0016 20.8021 12.0386C20.7341 12.0757 20.6832 12.1377 20.6602 12.2116C20.5945 12.4026 20.5653 12.6043 20.5741 12.8061C20.5952 13.003 20.6883 13.1851 20.8354 13.3177C20.8658 13.3466 20.9039 13.3661 20.9452 13.3738C20.9865 13.3815 21.0291 13.377 21.0679 13.3609C21.1067 13.3449 21.14 13.3179 21.1638 13.2833C21.1875 13.2487 21.2007 13.2079 21.2018 13.1659Z" fill="#FF4C60"/>
<path d="M28.7066 12.8692C28.9182 12.6333 28.8356 12.2927 28.8216 11.9986C28.8188 11.9192 28.7854 11.8441 28.7283 11.7889C28.6712 11.7337 28.5949 11.7029 28.5155 11.7029C28.4361 11.7029 28.3598 11.7337 28.3027 11.7889C28.2456 11.8441 28.2121 11.9192 28.2094 11.9986C28.1953 12.2937 28.1119 12.6323 28.3244 12.8692C28.3753 12.9194 28.4439 12.9476 28.5155 12.9476C28.587 12.9476 28.6557 12.9194 28.7066 12.8692Z" fill="#FF4C60"/>
<path d="M31.759 33.6388C29.5803 34.9163 27.6529 36.0407 25.0308 36.123C22.5728 36.2001 19.0475 35.563 17.0683 33.9912C17.005 33.9319 16.9211 33.8996 16.8344 33.901C16.7477 33.9024 16.6649 33.9374 16.6036 33.9988C16.5423 34.0601 16.5072 34.1429 16.5058 34.2296C16.5043 34.3163 16.5367 34.4002 16.596 34.4635C18.2321 36.5559 22.1778 37.058 24.6715 37.0783C27.3299 37.1 30.3466 36.1784 32.1779 34.182C32.2346 34.1219 32.268 34.0435 32.2721 33.9609C32.2762 33.8784 32.2507 33.7971 32.2002 33.7317C32.1497 33.6662 32.0776 33.6209 31.9967 33.6039C31.9158 33.5869 31.8315 33.5992 31.759 33.6388Z" fill="#FF4C60"/>
</svg>
