<svg width="50" height="50" viewBox="0 0 50 50" fill="none" xmlns="http://www.w3.org/2000/svg">
<g clip-path="url(#clip0_799_134)">
<path d="M18.8016 19.6386H21.8231L21.9448 24.0536C21.9536 24.3697 22.2124 24.6198 22.5262 24.6198H22.5425C22.8639 24.6107 23.1174 24.3432 23.1083 24.0218L22.9874 19.6386H26.0749C26.8449 19.6386 26.8453 18.4744 26.0749 18.4744H18.8016C18.4802 18.4744 18.2195 18.7351 18.2195 19.0565C18.2195 19.3778 18.4802 19.6386 18.8016 19.6386Z" fill="#FF4C60"/>
<path d="M6.14461 22.4674H18.6568C18.9782 22.4674 19.239 22.2067 19.239 21.8853C19.239 21.564 18.9782 21.3032 18.6568 21.3032H6.14461C5.82323 21.3032 5.5625 21.564 5.5625 21.8853C5.5625 22.2067 5.82323 22.4674 6.14461 22.4674Z" fill="#FF4C60"/>
<path d="M27.2895 30.0657C27.2895 29.7444 27.0288 29.4836 26.7074 29.4836H6.21433C5.89296 29.4836 5.63223 29.7444 5.63223 30.0657C5.63223 30.3871 5.89296 30.6479 6.21433 30.6479H26.7074C27.0288 30.6479 27.2895 30.3871 27.2895 30.0657Z" fill="#FF4C60"/>
<path d="M24.7837 37.5081C24.7837 37.1868 24.523 36.926 24.2016 36.926H10.3114C9.99007 36.926 9.72933 37.1868 9.72933 37.5081C9.72933 37.8295 9.99007 38.0902 10.3114 38.0902H24.2016C24.523 38.0902 24.7837 37.8295 24.7837 37.5081Z" fill="#FF4C60"/>
<path d="M18.8729 42.4614H14.5472C14.2259 42.4614 13.9651 42.7222 13.9651 43.0435C13.9651 43.3649 14.2259 43.6256 14.5472 43.6256H18.8729C19.1942 43.6256 19.455 43.3649 19.455 43.0435C19.455 42.7222 19.1942 42.4614 18.8729 42.4614Z" fill="#FF4C60"/>
<path d="M45.1264 29.4716L31.5652 36.6816C31.4339 30.3864 31.3943 25.5977 31.5567 19.4725C32.0245 19.0679 32.6602 18.439 33.1331 17.8768C35.9975 19.0621 38.8063 19.5053 41.6944 18.9077C50.1952 17.1487 51.9818 8.18763 45.2488 3.42613C40.3176 -0.0526146 31.4845 -0.175129 27.6776 4.36902C25.6735 6.74576 25.3933 9.95208 26.9439 12.5674C25.9021 12.5878 24.674 12.6855 22.796 12.8186C13.881 13.4548 10.9431 13.1188 1.62078 13.0968C1.62002 13.0968 1.61964 13.0968 1.61927 13.0968C1.38035 13.0968 1.13633 13.2358 1.06303 13.5485C0.708683 13.9673 0.354342 14.3863 0 14.8052C0.40323 25.2794 0.496742 36.5901 0.899971 47.0644C0.931237 47.8757 1.23072 48.4542 1.88426 48.7282C1.98114 48.8323 2.11492 48.9018 2.26656 48.913C7.76274 49.32 14.3987 49.0041 19.9094 48.6227C26.6247 48.1609 25.9853 48.3039 31.1736 48.5492C31.5016 48.5651 31.7858 48.3017 31.7834 47.964C31.7763 46.7822 31.7672 45.5829 31.7469 44.367L48.5099 35.4541C49.1647 35.1062 49.6475 34.4627 49.8692 33.6418C50.1296 32.6807 49.9962 31.6408 49.5134 30.8601C48.6766 29.508 46.7135 28.6272 45.1264 29.4716ZM30.3052 43.8154C30.3103 43.1188 30.2011 42.7046 29.6984 42.1657C34.7862 39.5155 40.4907 36.7277 45.2862 33.7513L45.9284 34.8986C45.9403 35.1134 45.914 35.2767 45.8597 35.3669C45.818 35.4363 45.7927 35.5107 45.7821 35.5862L30.3052 43.8154ZM26.5769 44.5183C26.2476 43.8937 25.9582 43.1969 25.5394 42.6516C26.41 41.2025 26.4942 41.0564 26.5861 40.9C26.8429 40.9456 27.3658 41.2071 27.6223 41.4313C28.186 41.9224 27.8544 42.4641 28.428 42.6425C28.6743 42.719 29.0525 43.1086 29.1029 43.3375C29.1741 43.6625 29.1388 44.1213 29.0662 44.3264C28.3009 44.4363 27.4388 44.4904 26.5769 44.5183ZM43.6305 31.5851C43.8558 31.6671 44.0762 31.7972 44.2866 31.9652L44.717 32.7344C40.1378 35.5817 34.6569 38.2878 28.9285 41.2548C28.6303 40.6797 28.2327 40.3781 27.6596 40.0761L43.6305 31.5851ZM28.5686 5.11787C31.3127 1.84381 37.0809 1.40203 41.3063 2.77657C41.3067 2.77732 41.3074 2.77732 41.3078 2.77732C47.0555 4.62911 49.0892 9.43756 47.852 12.5481C46.4397 16.1143 40.5139 18.6835 34.0466 16.4879L33.8564 16.4197C32.2005 15.8084 32.1202 16.4091 29.5763 18.6556C29.5289 17.2701 29.4376 15.7064 29.2056 13.7722C29.1568 13.3641 28.776 13.3432 27.9777 12.0402C26.6403 9.84673 26.8719 7.13023 28.5686 5.11787ZM30.6154 47.3547C19.88 46.7833 13.596 48.5156 2.87784 47.789C2.59899 36.8099 2.4947 25.2816 2.21653 14.2625C10.9641 14.2975 14.1017 14.6075 22.879 13.9798C24.8801 13.8403 26.4456 13.7025 27.7729 13.7341C27.8724 13.8551 27.9659 13.9794 28.0717 14.0966C28.6934 19.4261 28.1178 19.7369 28.7994 20.1397C29.0342 20.2791 29.3 20.2902 29.5767 20.138C29.9358 20.1779 30.1396 20.222 30.3747 20.2041C30.2162 26.1508 30.2972 31.9281 30.4121 37.2946C25.9063 39.7257 26.027 39.5461 25.8767 39.807C24.7615 41.7565 23.7075 43.2447 23.0033 44.9838C22.8481 45.3656 23.1289 45.8062 23.5873 45.7827C25.1637 45.6595 27.7936 45.7751 29.7441 45.4022C29.8901 45.3751 29.9346 45.3224 30.5893 44.9825C30.6002 45.7783 30.6103 46.574 30.6154 47.3547Z" fill="#FF4C60"/>
<path d="M43.7397 11.8251C44.7308 11.7123 45.2972 10.6487 44.6545 9.84454C44.5679 9.31312 43.4989 8.88684 42.7123 9.37386C42.1495 9.72176 41.9358 10.4266 42.2151 11.0133C42.4805 11.5724 43.1375 11.8983 43.7397 11.8251Z" fill="#FF4C60"/>
<path d="M39.5251 9.94366C39.6005 9.59273 39.5001 9.23043 39.2776 8.95302C39.1924 8.41875 38.1179 7.99698 37.3358 8.48157C36.7734 8.82871 36.5596 9.53436 36.8386 10.1218C37.3967 11.2975 39.2616 11.1729 39.5251 9.94366Z" fill="#FF4C60"/>
<path d="M32.8252 10.0149C33.8171 9.89929 34.3821 8.83521 33.7382 8.03438C33.7158 7.89416 33.6427 7.76228 33.5221 7.66829C32.3538 6.75519 30.6834 7.90664 31.2991 9.20314C31.5337 9.69732 32.1655 10.0862 32.8252 10.0149Z" fill="#FF4C60"/>
</g>
<defs>
<clipPath id="clip0_799_134">
<rect width="50" height="50" fill="white"/>
</clipPath>
</defs>
</svg>
