<svg width="50" height="50" viewBox="0 0 50 50" fill="none" xmlns="http://www.w3.org/2000/svg">
<path d="M46.2939 22.5908C46.7349 21.4439 46.5773 20.1007 45.8568 19.1492C45.1492 18.2136 43.9 17.6727 42.6727 17.7795C41.3932 17.8878 40.2917 18.9628 39.8667 19.9681C39.4546 20.9439 39.5568 22.1264 40.1083 23.081C39.7568 23.3469 39.3985 23.6219 39.0674 23.9492C38.697 24.3174 38.3977 24.6992 38.1455 25.0893H36.5371C36.4326 25.0893 36.3477 25.1742 36.3477 25.2787C36.3477 25.3833 36.4326 25.4681 36.5371 25.4681H37.9205C37.7038 25.8704 37.5371 26.281 37.4462 26.7007C36.9879 28.8355 38.0667 30.806 41.3644 31.137C42.753 31.284 44.1538 31.231 45.5296 30.9848C48.2364 30.506 49.2311 28.8727 48.8402 26.556C48.5614 24.9492 47.6311 23.5037 46.2939 22.5908ZM47.5076 25.0484C47.6159 25.2446 47.7152 25.4454 47.7985 25.653L47.0705 26.381L46.6833 25.9939C46.6599 25.9704 46.628 25.9673 46.5977 25.9583L47.5076 25.0484ZM47.3083 24.7113L46.8712 25.1477C46.8674 25.1439 46.8689 25.1378 46.8652 25.1333L46.3182 24.5863L46.8265 24.078C47.0023 24.278 47.1644 24.4886 47.3083 24.7113ZM44.4023 25.0234L45.3114 24.1151L45.7833 24.587L44.8742 25.4954L44.4023 25.0234ZM43.347 25.5439C43.3235 25.5673 43.3197 25.5999 43.3114 25.6302L42.6689 24.9878L42.8962 24.7605C42.9242 24.7613 42.9523 24.7628 42.9803 24.7636C43.0015 24.7636 43.022 24.7674 43.0424 24.7674C43.0985 24.7674 43.153 24.753 43.2083 24.7507C43.3288 24.7454 43.45 24.7439 43.5697 24.7264L43.8674 25.0234L43.347 25.5439ZM40.5576 23.6999L40.3508 23.9067L40.3197 23.8757C40.3977 23.8151 40.4742 23.753 40.5523 23.6946C40.5538 23.6961 40.5553 23.6977 40.5576 23.6999ZM40.8303 23.9628C40.9523 24.0689 41.078 24.1666 41.2121 24.2514C41.2849 24.2977 41.3629 24.3317 41.4386 24.3711L41.1265 24.6833L40.6182 24.1749L40.8303 23.9628ZM42.4144 24.706L42.4008 24.7196L42.3833 24.703C42.3932 24.7045 42.4038 24.7045 42.4144 24.706ZM44.0076 24.6287C44.1159 24.5992 44.2212 24.562 44.3258 24.5227C44.3455 24.5151 44.3659 24.512 44.3849 24.5045L44.1341 24.7552L44.0076 24.6287ZM45.5788 23.8469L46.0621 23.3636C46.2394 23.4984 46.4076 23.6461 46.5667 23.8037L46.0508 24.3196L45.5788 23.8469ZM40.5652 20.2628C40.9515 19.3499 41.8849 18.6067 42.7364 18.5348C42.8174 18.528 42.8985 18.5242 42.9796 18.5242C43.872 18.5242 44.7439 18.934 45.2523 19.6067C45.8606 20.409 45.9568 21.6264 45.4856 22.5673L45.4849 22.5681C45.3849 22.7696 45.2561 22.959 45.1038 23.1295C44.2508 24.0704 42.6871 24.2878 41.6174 23.6105C41.4856 23.5272 41.3614 23.4302 41.2447 23.3196C41.128 23.209 41.0197 23.0855 40.9197 22.9492C40.3462 22.1636 40.2068 21.109 40.5652 20.2628ZM45.3977 30.2393C44.0841 30.4749 42.7553 30.5227 41.4424 30.384C38.672 30.1045 37.8068 28.631 38.1871 26.8605C38.3621 26.053 38.8515 25.2317 39.6008 24.487C39.7333 24.356 39.8758 24.2325 40.0205 24.1128L40.0826 24.1749L39.797 24.4613C39.7227 24.5355 39.7227 24.6552 39.797 24.7295C39.8697 24.8022 39.9902 24.8045 40.0652 24.7295L40.3508 24.4439L40.8591 24.9522L40.6735 25.1378C40.5992 25.212 40.5992 25.3317 40.6735 25.406C40.747 25.4795 40.8667 25.4802 40.9417 25.406L41.1273 25.2204L41.3205 25.4136C41.3955 25.4886 41.5152 25.4863 41.5886 25.4136C41.6629 25.3393 41.6629 25.2196 41.5886 25.1454L41.3955 24.9522L41.7349 24.6128C41.7394 24.6083 41.7379 24.6014 41.7417 24.5969L42.1341 24.9893L41.5644 25.559C41.4902 25.6333 41.4902 25.753 41.5644 25.8272C41.6379 25.9007 41.7576 25.9014 41.8326 25.8272L42.4023 25.2575L43.0689 25.9242C43.1424 25.9977 43.2621 25.9984 43.3371 25.9242C43.3644 25.8969 43.3705 25.8613 43.378 25.8257C43.4697 25.8901 43.5523 25.878 43.6167 25.8136L44.1371 25.2931L44.6818 25.8378C44.6902 25.8681 44.6939 25.9007 44.7182 25.9249C44.7424 25.9492 44.7742 25.9522 44.8053 25.9613L45.0114 26.1673C45.0841 26.2401 45.2046 26.2424 45.2796 26.1673C45.3538 26.0931 45.3538 25.9734 45.2796 25.8992L45.1462 25.7658L46.0546 24.8575L46.6015 25.4045C46.6053 25.4083 46.6114 25.4067 46.6159 25.4105L46.0311 25.9946C45.9568 26.0689 45.9568 26.1886 46.0311 26.2628C46.1046 26.3363 46.2242 26.337 46.2992 26.2628L46.3833 26.1787C46.3917 26.209 46.3955 26.2408 46.4189 26.2643L46.8061 26.6514L46.3159 27.1416C46.2417 27.2158 46.2417 27.3355 46.3159 27.4098C46.3894 27.4833 46.5091 27.484 46.5841 27.4098L47.0742 26.9196L47.4265 27.2719C47.5 27.3454 47.6197 27.3461 47.6947 27.2719C47.7689 27.1977 47.7689 27.078 47.6947 27.0037L47.3424 26.6514L47.9402 26.053C48.0053 26.262 48.0614 26.4727 48.0985 26.687C48.475 28.9393 47.3364 29.8969 45.3977 30.2393Z" fill="#FF4C60"/>
<path d="M19.2985 9.68631C18.8447 11.7984 19.8992 13.7916 23.2167 14.1219C23.728 14.1765 24.2424 14.203 24.7583 14.203C25.6318 14.203 26.5106 14.125 27.3818 13.9696C30.0924 13.4909 31.0841 11.8492 30.6924 9.54086C30.5121 8.50222 30.0568 7.53328 29.3985 6.72949C29.3962 6.6848 29.3811 6.63934 29.347 6.60525C29.322 6.58025 29.2886 6.57571 29.2568 6.56737C28.9288 6.19389 28.5591 5.85677 28.1462 5.57419C28.5871 4.42646 28.4296 3.08328 27.7083 2.13404C26.2492 0.197676 22.8977 0.165857 21.7182 2.95222C21.3068 3.92798 21.4091 5.11131 21.9606 6.06434C21.6091 6.32949 21.2523 6.60525 20.9205 6.93177C20.0652 7.78177 19.5046 8.73404 19.2985 9.68631ZM29.2902 12.3659C29.2894 12.3659 29.2894 12.3666 29.2902 12.3659C28.7417 12.9045 27.9121 13.1075 27.2492 13.2249C25.9318 13.459 24.6015 13.506 23.2939 13.3689C20.5235 13.0924 19.6591 11.6151 20.0386 9.84616C20.2136 9.03707 20.703 8.21662 21.453 7.47192C21.4689 7.45601 21.4871 7.44237 21.5038 7.42722C21.5288 7.43858 21.5515 7.45828 21.5788 7.45828C21.6273 7.45828 21.6758 7.4401 21.7129 7.40298L21.7833 7.33252L22.4636 8.01283L22.225 8.25222C22.1508 8.32646 22.1508 8.44616 22.225 8.5204C22.2977 8.59313 22.4182 8.5954 22.4932 8.5204L22.7674 8.24616C22.8977 8.25374 22.9727 8.16131 22.9644 8.04919L23.5 7.51283L23.9046 7.91737L22.9265 8.8954C22.8523 8.96965 22.8523 9.08934 22.9265 9.16358C23 9.23707 23.1197 9.23783 23.1947 9.16358L24.1727 8.18555L24.9015 8.91434L24.7189 9.09692C24.6447 9.17116 24.6447 9.29086 24.7189 9.3651C24.7924 9.43859 24.9121 9.43934 24.9871 9.3651L25.1947 9.15752C25.2606 9.17646 25.3038 9.19389 25.3765 9.12192C25.4265 9.07192 25.4303 9.00449 25.4121 8.9401L25.9144 8.43783L26.822 9.3454C26.8955 9.41889 27.0152 9.41965 27.0902 9.3454C27.1644 9.27116 27.1644 9.15146 27.0902 9.07722L26.1826 8.16965L26.9924 7.35601L27.6606 8.02419L27.0871 8.59768C27.0129 8.67192 27.0129 8.79162 27.0871 8.86586C27.1621 8.94086 27.2818 8.93859 27.3553 8.86586L27.9288 8.29237L28.1909 8.55449C28.2644 8.62798 28.3841 8.62874 28.4591 8.55449C28.5333 8.48025 28.5333 8.36055 28.4591 8.28631L28.197 8.02419L28.4811 7.7401L28.9091 8.16813L27.6508 9.42646C27.5765 9.50071 27.5765 9.6204 27.6508 9.69465C27.7242 9.76813 27.8439 9.76889 27.9189 9.69465L27.9288 9.6848L28.3333 10.0893L28.0894 10.3333C28.0152 10.4075 28.0152 10.5272 28.0894 10.6015C28.1629 10.6749 28.2826 10.6757 28.3576 10.6015L28.6015 10.3575L29.0576 10.8136C29.1311 10.8871 29.2508 10.8878 29.3258 10.8136C29.4 10.7393 29.4 10.6196 29.3258 10.5454L28.8697 10.0893L29.822 9.13631C29.8727 9.31207 29.9152 9.4901 29.9462 9.6704C30.1326 10.7734 29.8871 11.781 29.2902 12.3659ZM25.2038 7.72874L25.6439 8.16889L25.1674 8.6454L24.4386 7.91662C24.5129 7.84237 24.55 7.81283 24.6053 7.73328C24.8833 7.75525 24.8227 7.7598 25.2038 7.72874ZM26.3826 7.43025L25.9121 7.90071L25.6742 7.66283C25.8303 7.62949 26.2386 7.49465 26.3826 7.43025ZM22.7311 7.7454L22.0508 7.0651L22.4197 6.6954C22.6053 6.89692 22.8568 7.11283 23.178 7.29768L22.7311 7.7454ZM29.2091 8.40374C29.2689 8.41131 29.3091 8.41434 29.3652 8.35752C29.4083 8.31434 29.4182 8.25752 29.4114 8.20146L29.4386 8.17419C29.5409 8.37343 29.628 8.57874 29.7046 8.78858C29.6606 8.79162 29.6167 8.80525 29.5833 8.83858L28.6008 9.82116L28.1962 9.41662L29.2091 8.40374ZM29.2576 7.85449C29.2379 7.86358 29.2152 7.86283 29.1992 7.87874L29.1765 7.90146L28.7485 7.47343L28.8985 7.32343C29.0296 7.49161 29.1477 7.6704 29.2576 7.85449ZM28.653 7.03252L28.4811 7.20449L28.1227 6.84616C28.0492 6.77268 27.9296 6.77116 27.8546 6.84616C27.7803 6.9204 27.7803 7.0401 27.8546 7.11434L28.2129 7.47268L27.9288 7.75677L27.2599 7.08783L27.9621 6.38631C28.2106 6.58025 28.4424 6.79616 28.653 7.03252ZM22.4159 3.24919C23.3174 1.1204 25.8992 0.994646 27.1038 2.59313C27.7129 3.39465 27.8091 4.61131 27.3379 5.55298C26.6197 6.99465 24.6955 7.3704 23.4697 6.59692C23.2053 6.42874 22.9705 6.20525 22.772 5.93404C22.1985 5.14919 22.0591 4.09465 22.4159 3.24919Z" fill="#FF4C60"/>
<path d="M28.1462 40.6097C28.5871 39.462 28.4288 38.1196 27.7083 37.1696C27.0424 36.2855 25.8939 35.7635 24.7326 35.7953L24.6879 34.4824C24.6841 34.3779 24.5977 34.284 24.4917 34.2999C24.3871 34.3037 24.3053 34.3908 24.3091 34.4961L24.3546 35.8302C23.1485 36.0143 22.125 37.0279 21.7182 37.9885C21.3068 38.965 21.4091 40.1483 21.9606 41.1014C21.6091 41.3665 21.2515 41.6423 20.9197 41.9688C20.0523 42.8294 19.5076 43.7544 19.2977 44.7211C18.8371 46.8643 19.925 48.8271 23.2159 49.1574C24.6205 49.3059 26.0197 49.2491 27.3811 49.0052C28.1508 48.8688 29.1235 48.6256 29.8197 47.943C30.5939 47.184 30.9205 45.9264 30.6917 44.5771C30.4136 42.9696 29.4841 41.5241 28.1462 40.6097ZM29.9121 44.5559L29.4273 44.0711L29.6977 43.8006C29.7886 44.0476 29.8599 44.2999 29.9121 44.5559ZM28.9735 42.4741L28.8894 42.5582L28.1303 41.7991L28.2614 41.668C28.5273 41.9097 28.7674 42.1802 28.9811 42.4711C28.978 42.4726 28.9758 42.4718 28.9735 42.4741ZM23.0364 42.5377L22.4326 41.934L22.5303 41.8362C22.5636 41.8688 22.597 41.9014 22.6311 41.9324C22.7682 42.0567 22.9106 42.1733 23.0644 42.2703C23.1144 42.3021 23.1689 42.3249 23.2205 42.3529L23.0364 42.5377ZM25.7636 42.6688C25.9053 42.634 26.0439 42.5915 26.1803 42.5408C26.2599 42.5112 26.3379 42.4809 26.4152 42.4461C26.4629 42.4241 26.5136 42.409 26.5606 42.3847L26.7849 42.609L26.1811 43.2127L25.6674 42.6991C25.7008 42.6915 25.7311 42.6764 25.7636 42.6688ZM26.8939 42.1817C26.9318 42.1567 26.9689 42.1324 27.0053 42.1059C27.1765 41.9824 27.3364 41.8438 27.4826 41.6877L27.5932 41.7983L27.0515 42.34L26.8939 42.1817ZM27.747 41.4158C27.7386 41.4074 27.7258 41.4097 27.7159 41.4029C27.7417 41.368 27.7712 41.3362 27.7947 41.3006C27.797 41.2976 27.7993 41.2946 27.8015 41.2923C27.8591 41.3332 27.9121 41.3809 27.9682 41.4249L27.8621 41.5309L27.747 41.4158ZM22.4159 38.2824C23.3189 36.1491 25.9015 36.0317 27.1038 37.6256C27.7121 38.4279 27.8083 39.6453 27.3379 40.5862C27.2371 40.7885 27.1076 40.9787 26.9561 41.1483C25.953 42.2544 23.8462 42.4415 22.772 40.9673C22.1985 40.1824 22.0591 39.1287 22.4159 38.2824ZM29.2902 47.4006C28.7417 47.9385 27.9121 48.1423 27.2493 48.259C25.9356 48.4946 24.6061 48.5415 23.2939 48.4037C20.5235 48.1241 19.6583 46.6506 20.0386 44.8802C20.2136 44.0718 20.703 43.2514 21.453 42.5067C21.5871 42.3741 21.7311 42.2491 21.878 42.1279C21.8871 42.1499 21.8871 42.1756 21.9053 42.193C21.9697 42.2574 22.0727 42.2749 22.1614 42.1983L22.7856 42.8226C22.7515 42.893 22.7508 42.9756 22.8091 43.034C22.8462 43.0711 22.8939 43.0893 22.9432 43.0893C23.028 43.0893 23.0621 43.0483 23.1189 42.9915C23.2121 42.9582 23.1894 42.9794 23.2227 42.8877L23.5659 42.5446L24.0144 42.993L23.3053 43.7021C23.2311 43.7764 23.2311 43.8961 23.3053 43.9703C23.3788 44.0438 23.4985 44.0446 23.5735 43.9703L24.2826 43.2612L24.9311 43.9105C25.0061 43.9855 25.1258 43.9832 25.1993 43.9105C25.2735 43.8362 25.2735 43.7165 25.1993 43.6423L24.5508 42.993L24.7591 42.7847C24.7599 42.784 24.7599 42.7824 24.7606 42.7809C24.7856 42.7817 24.8106 42.7817 24.8364 42.7824C24.8553 42.7824 24.8743 42.7862 24.8939 42.7862C24.9462 42.7862 24.9977 42.7726 25.05 42.7703C25.0993 42.768 25.1477 42.7665 25.197 42.762L25.9152 43.4802L25.653 43.7423C25.5788 43.8165 25.5788 43.9362 25.653 44.0105C25.7265 44.084 25.8462 44.0847 25.9212 44.0105L26.1833 43.7483L26.4182 43.9832C26.4917 44.0567 26.6121 44.0574 26.6864 43.9832C26.7606 43.909 26.7606 43.7893 26.6864 43.715L26.4515 43.4802L27.0553 42.8764L27.5394 43.3605C27.6129 43.434 27.7326 43.4347 27.8076 43.3605C27.8818 43.2862 27.8818 43.1665 27.8076 43.0923L27.3235 42.6082L27.8652 42.0665L28.6243 42.8256L27.4144 44.0355C27.3402 44.1097 27.3402 44.2294 27.4144 44.3036C27.4879 44.3771 27.6076 44.3779 27.6826 44.3036L29.2015 42.7847C29.3311 42.99 29.4417 43.2059 29.5432 43.4264C29.5409 43.4279 29.5386 43.4271 29.5364 43.4294L29.1621 43.8036L28.8083 43.4499C28.7341 43.3756 28.6144 43.3756 28.5402 43.4499C28.4659 43.5241 28.4659 43.6438 28.5402 43.718L28.8939 44.0718L28.2697 44.6961C28.1955 44.7703 28.1955 44.89 28.2697 44.9643C28.3432 45.0377 28.4629 45.0385 28.5379 44.9643L29.1621 44.34L29.7546 44.9324C29.7917 44.9696 29.8394 44.9877 29.8886 44.9877C29.9174 44.9877 29.9409 44.968 29.9674 44.9552C30.075 45.9567 29.8409 46.8605 29.2902 47.4006Z" fill="#FF4C60"/>
<path d="M41.0667 36.8447C41.3076 36.1205 41.1901 35.2932 40.7417 34.7016C39.7704 33.419 37.5947 33.4447 36.8364 35.2326C36.5848 35.8296 36.6401 36.5387 36.9424 37.1372C36.753 37.2819 36.5629 37.4326 36.3826 37.6106C35.8341 38.1553 35.4879 38.744 35.3545 39.3614C35.0614 40.7296 35.7576 42.0326 37.8712 42.2432C38.7515 42.3379 39.6182 42.2978 40.45 42.1493C40.9394 42.0629 41.5606 41.9069 42.0136 41.4622C42.5204 40.9659 42.7348 40.1508 42.5871 39.2796C42.4167 38.3008 41.8591 37.425 41.0667 36.8447ZM38.5303 38.9781L38.175 38.6228L38.4795 38.3182C38.4864 38.3197 38.4939 38.3197 38.5008 38.3205C38.6242 38.3425 38.7894 38.3561 38.8621 38.3569C38.8765 38.3569 38.8901 38.3599 38.9045 38.3599C38.9068 38.3599 38.9091 38.3591 38.9121 38.3591L39.0303 38.4773L38.5303 38.9781ZM37.6023 37.9379C37.6401 37.9659 37.6742 37.9993 37.7136 38.0243C37.8174 38.0902 37.9273 38.1425 38.0394 38.1887C38.047 38.1917 38.0545 38.197 38.0621 38.2L37.9076 38.3546L37.5697 38.0167C37.5894 37.9947 37.5954 37.9659 37.6023 37.9379ZM39.9106 38.1334C39.997 38.0932 40.078 38.0455 40.1591 37.9947C40.1947 37.972 40.2333 37.9553 40.2682 37.9303L40.3068 37.969L39.6826 38.5932L39.5667 38.4773L39.9106 38.1334ZM40.5538 37.6819C40.5742 37.6614 40.5985 37.6447 40.6182 37.6235C40.65 37.5872 40.6811 37.55 40.7098 37.5129C40.7197 37.5205 40.728 37.5319 40.7379 37.5394L40.5742 37.7023L40.5538 37.6819ZM41.0114 37.8008C41.1621 37.9584 41.2992 38.1281 41.4151 38.3137L41.3008 38.4281L40.8424 37.9697L41.0114 37.8008ZM41.5962 38.6682C41.6129 38.7046 41.6326 38.7387 41.6477 38.7758L41.5682 38.6962L41.5962 38.6682ZM41.5409 39.2038C41.578 39.2409 41.6258 39.2591 41.675 39.2591C41.7159 39.2591 41.753 39.2387 41.7871 39.2129C41.7947 39.2447 41.8068 39.2766 41.8136 39.3091C41.7879 39.3182 41.7591 39.3197 41.7386 39.3402L41.5091 39.5697L41.1144 39.175C41.1098 39.1705 41.103 39.172 41.0985 39.1682L41.3023 38.9644L41.5409 39.2038ZM41.8659 39.747C41.8674 39.8084 41.8697 39.869 41.8667 39.9281L41.7758 39.8372L41.8659 39.747ZM37.5333 35.5281C38.0379 34.3364 39.4682 34.275 40.1371 35.1591C40.4742 35.6046 40.5273 36.2826 40.2644 36.8084C40.2091 36.9197 40.1371 37.0243 40.0553 37.1175C39.4864 37.7432 38.3189 37.8182 37.7341 37.0182H37.7333C37.4144 36.5803 37.3356 35.9955 37.5333 35.5281ZM41.4826 40.9205C41.178 41.2197 40.7 41.3356 40.3167 41.4031C39.5303 41.5447 38.7326 41.5728 37.9477 41.4894C36.3667 41.3326 35.8773 40.5311 36.0939 39.5205C36.178 39.1341 36.3954 38.7409 36.7159 38.3697C36.675 38.4417 36.6727 38.5311 36.7341 38.5925C36.8076 38.6659 36.9273 38.6667 37.0023 38.5925L37.3061 38.2887L37.6401 38.6228L37.2174 39.0455C37.1432 39.1197 37.1432 39.2394 37.2174 39.3137C37.2909 39.3872 37.4106 39.3879 37.4856 39.3137L37.9083 38.8909L38.2636 39.2462L38.0667 39.4432C37.9924 39.5175 37.9924 39.6372 38.0667 39.7114C38.1394 39.7841 38.2598 39.7864 38.3348 39.7114L39.2992 38.7462L39.4151 38.8622L38.8053 39.472C38.7311 39.5462 38.7311 39.6659 38.8053 39.7402C38.8788 39.8137 38.9985 39.8144 39.0735 39.7402L39.6833 39.1303L39.7985 39.2455C39.872 39.319 39.9917 39.3197 40.0667 39.2455C40.1409 39.1712 40.1409 39.0516 40.0667 38.9773L39.9515 38.8622L40.5758 38.2379L41.0341 38.6962L39.9985 39.7319C39.9242 39.8061 39.9242 39.9258 39.9985 40C40.072 40.0735 40.1917 40.0743 40.2667 40L40.8401 39.4266C40.8439 39.4311 40.8424 39.4387 40.847 39.4425L41.2417 39.8372L40.95 40.1288C40.8758 40.2031 40.8758 40.3228 40.95 40.397C41.0235 40.4705 41.1432 40.4712 41.2182 40.397L41.5098 40.1053L41.7871 40.3826C41.7197 40.594 41.6235 40.7819 41.4826 40.9205C41.4833 40.9197 41.4826 40.9197 41.4826 40.9205Z" fill="#FF4C60"/>
<path d="M37.8341 15.3659C40.4879 15.6515 43 15.0454 42.5508 12.4023C42.3811 11.4235 41.8227 10.5462 41.0311 9.96817C41.2727 9.24469 41.1546 8.41817 40.7053 7.82575C40.2447 7.21514 39.4402 6.86211 38.6341 6.93181C37.7955 7.00378 37.0765 7.70226 36.8008 8.35529C36.5493 8.95226 36.6046 9.66135 36.9068 10.2606C36.7174 10.4053 36.5265 10.5553 36.3462 10.7333C35.8046 11.2704 35.4492 11.8757 35.3174 12.4848C35.0197 13.8735 35.7424 15.1583 37.8341 15.3659ZM41.8091 13.0682L41.7371 12.9962L41.8326 12.9007C41.8341 12.9712 41.8296 13.0379 41.8243 13.1061C41.8174 13.0939 41.8197 13.0788 41.8091 13.0682ZM40.8788 11.9053L40.3046 11.3303L40.8409 10.7939C40.8583 10.8106 40.8758 10.8273 40.8932 10.8439C40.8636 10.9129 40.8636 10.9917 40.9197 11.0477L41.328 11.4561L40.8788 11.9053ZM39.0303 11.4704C39.1129 11.4651 39.1947 11.4576 39.2765 11.4439C39.3333 11.4341 39.3879 11.4204 39.4439 11.4068C39.5326 11.3848 39.6197 11.3583 39.7053 11.3265C39.7197 11.3212 39.7356 11.3189 39.75 11.3129L39.7682 11.3311L39.3288 11.7697L39.0303 11.4704ZM37.7849 11.6879C37.7758 11.6591 37.7735 11.628 37.7508 11.6053L37.4962 11.3507L37.6909 11.1553C37.7909 11.2174 37.8955 11.2689 38.003 11.3129C38.0371 11.3265 38.072 11.3371 38.1061 11.3492C38.1099 11.3507 38.1144 11.3523 38.1182 11.3538L37.7849 11.6879ZM37.3515 10.8901C37.3636 10.9015 37.3758 10.9114 37.3879 10.922L37.228 11.0818L37.1705 11.0242C37.228 10.9773 37.2796 10.9265 37.3394 10.8803C37.3432 10.8841 37.3477 10.8864 37.3515 10.8901ZM37.4993 8.64999C37.7144 8.1409 38.2303 7.72651 38.6985 7.68711C38.7439 7.68332 38.7894 7.68105 38.8349 7.68105C39.3333 7.68105 39.8197 7.90908 40.1015 8.28257C40.4394 8.72878 40.4924 9.40605 40.2296 9.93105V9.93181C40.175 10.0424 40.103 10.147 40.0197 10.2409C39.5455 10.7644 38.678 10.8833 38.0833 10.5083C38.0114 10.4629 37.9432 10.4091 37.8788 10.3485C37.8144 10.2871 37.7546 10.2189 37.6993 10.1432C37.3796 9.70529 37.3008 9.11893 37.4993 8.64999ZM36.0583 12.6447C36.1591 12.1795 36.4432 11.7053 36.8796 11.272L36.8811 11.2704L36.9606 11.35L36.8394 11.4712C36.7652 11.5454 36.7652 11.6651 36.8394 11.7394C36.9121 11.8121 37.0326 11.8144 37.1076 11.7394L37.2288 11.6182L37.4833 11.8727C37.5061 11.8954 37.5371 11.8985 37.5659 11.9068L37.4553 12.0174C37.3811 12.0917 37.3811 12.2114 37.4553 12.2856C37.5288 12.3591 37.6485 12.3598 37.7235 12.2856L38.5167 11.4924L39.0917 12.0674C39.0811 12.1265 39.0879 12.1871 39.1341 12.2333C39.1985 12.2977 39.2386 12.2871 39.3 12.2757L39.5349 12.5106C39.6083 12.5841 39.728 12.5848 39.803 12.5106C39.8773 12.4364 39.8773 12.3167 39.803 12.2424L39.5977 12.0371L40.0371 11.5985L40.6121 12.1735L40.0826 12.703C40.0083 12.7773 40.0083 12.897 40.0826 12.9712C40.1561 13.0447 40.2758 13.0454 40.3508 12.9712L41.5515 11.7704C41.65 11.9811 41.728 12.1985 41.7765 12.4242L41.4712 12.7295L41.2083 12.4667C41.1341 12.3924 41.0144 12.3924 40.9402 12.4667C40.8659 12.5409 40.8659 12.6606 40.9402 12.7348L41.203 12.9977L40.775 13.4257C40.7008 13.5 40.7008 13.6197 40.775 13.6939C40.8485 13.7674 40.9682 13.7682 41.0432 13.6939L41.4712 13.2659L41.5432 13.3379C41.6068 13.4015 41.7083 13.4197 41.7977 13.3432C41.7402 13.6265 41.6258 13.872 41.4493 14.0439C41.4485 14.0439 41.4485 14.0447 41.4485 14.0447C41.1439 14.3447 40.6667 14.4606 40.2833 14.528C39.4947 14.6689 38.6985 14.697 37.9136 14.6144C36.3265 14.4538 35.8432 13.65 36.0583 12.6447Z" fill="#FF4C60"/>
<path d="M12.8311 36.778C13.072 36.0537 12.9538 35.2264 12.5046 34.6348C12.0447 34.0257 11.2318 33.6704 10.4349 33.7424C9.59622 33.8128 8.87652 34.512 8.60077 35.1658C8.34849 35.7636 8.40455 36.4727 8.70683 37.0696C8.51743 37.2143 8.32728 37.3651 8.14622 37.5431C7.59774 38.0878 7.25152 38.6764 7.11819 39.2939C6.82274 40.6742 7.53258 41.9643 9.63486 42.1764C10.4462 42.2636 11.328 42.2408 12.2144 42.0817C13.9689 41.7719 14.6 40.6757 14.3508 39.212C14.1811 38.2325 13.6227 37.3552 12.8311 36.778ZM13.6349 39.728C13.6356 39.7711 13.6349 39.8128 13.6326 39.8545L13.5705 39.7924L13.6349 39.728ZM11.1235 38.5931L10.8121 38.2817C10.9023 38.2764 10.9909 38.2689 11.0796 38.2537C11.1341 38.2446 11.1871 38.231 11.2409 38.2181C11.2477 38.2166 11.2546 38.2151 11.2621 38.2136L11.3833 38.3348L11.1235 38.5931ZM10.0023 38.3605C9.99395 38.3454 9.99622 38.3272 9.98258 38.3136L9.78486 38.1158C9.79092 38.1181 9.79698 38.1196 9.80304 38.1227C9.83713 38.137 9.87198 38.1477 9.90758 38.1598C9.98258 38.1863 10.0583 38.2098 10.1356 38.228L10.0023 38.3605ZM12.6439 37.6083C12.7833 37.7378 12.9091 37.8787 13.0235 38.0325L12.6212 37.6302L12.6439 37.6083ZM9.29925 35.4605C9.51364 34.9507 10.0296 34.537 10.4985 34.4977C10.5439 34.4939 10.5894 34.4916 10.6349 34.4916C11.1333 34.4916 11.6197 34.7196 11.9015 35.0924C12.2386 35.5378 12.2917 36.2158 12.0296 36.7416C11.975 36.8522 11.903 36.9567 11.8197 37.0507C11.3455 37.5742 10.478 37.6931 9.88334 37.3181C9.7394 37.2272 9.60986 37.1037 9.49849 36.953C9.17955 36.5151 9.10152 35.9302 9.29925 35.4605ZM13.247 40.8537C12.9424 41.153 12.4652 41.2689 12.0818 41.3363C11.2932 41.478 10.4962 41.506 9.71213 41.4234C8.11365 41.2613 7.64546 40.4477 7.85834 39.4537C7.9591 38.9901 8.24319 38.5151 8.6788 38.0817C8.76895 37.9931 8.87046 37.9151 8.96895 37.8348L9.02804 37.8939L8.87198 38.0499C8.79774 38.1242 8.79774 38.2439 8.87198 38.3181C8.94546 38.3916 9.06516 38.3924 9.14016 38.3181L9.29622 38.162L9.71592 38.5817C9.74016 38.606 9.77349 38.6105 9.80455 38.6189C9.79395 38.678 9.80077 38.7386 9.84698 38.7848C9.92198 38.8598 10.0417 38.8575 10.1152 38.7848L10.4477 38.4522L10.8561 38.8605L10.7258 38.9908C10.6515 39.0651 10.6515 39.1848 10.7258 39.259C10.8008 39.334 10.9205 39.3317 10.9939 39.259L11.1886 39.0643C11.2235 39.0567 11.2599 39.0507 11.2871 39.0234C11.3144 38.9961 11.3205 38.9605 11.328 38.9249L11.6523 38.6014L12.1091 39.0575C12.1462 39.0946 12.1947 39.1128 12.2432 39.1128C12.2917 39.1128 12.3402 39.0946 12.3773 39.0575C12.4515 38.9833 12.4515 38.8636 12.3773 38.7893L11.9182 38.3333L12.3538 37.8984L12.9644 38.509L12.1129 39.3605C12.0386 39.4348 12.0386 39.5545 12.1129 39.6287C12.1864 39.7022 12.3061 39.703 12.3811 39.6287L13.3765 38.6333C13.4682 38.8386 13.5417 39.0507 13.5856 39.2696C13.5705 39.278 13.5515 39.2764 13.5386 39.2893L13.303 39.5249L13.05 39.2727C12.9758 39.1984 12.8553 39.1984 12.7818 39.2727C12.7076 39.3469 12.7076 39.4666 12.7818 39.5408L13.0349 39.7931L12.7068 40.1211C12.6326 40.1954 12.6326 40.3151 12.7068 40.3893C12.7803 40.4628 12.9 40.4636 12.975 40.3893L13.303 40.0613L13.553 40.3113C13.4871 40.5242 13.3894 40.7143 13.247 40.8537C13.2477 40.853 13.247 40.853 13.247 40.8537Z" fill="#FF4C60"/>
<path d="M14.3508 12.4688C14.1811 11.49 13.6227 10.6127 12.8311 10.0347C13.072 9.31043 12.9545 8.48316 12.5045 7.89074C11.5356 6.60816 9.35454 6.63543 8.60075 8.4218C8.34848 9.01952 8.40454 9.72862 8.70681 10.3271C8.51742 10.4718 8.32651 10.6218 8.14697 10.7998C7.6053 11.3369 7.25 11.9423 7.11818 12.5513C6.82424 13.9218 7.52348 15.2203 9.63484 15.4332C10.4462 15.5203 11.328 15.4976 12.2144 15.3385C13.9826 15.0256 14.597 13.9165 14.3508 12.4688ZM12.4598 12.1976L11.8947 11.6324L12.2962 11.2309L12.8614 11.796L12.4598 12.1976ZM9.4 11.1536C9.42727 11.1726 9.45075 11.1968 9.47803 11.2142C9.58181 11.2794 9.6909 11.3324 9.80303 11.3786C9.83333 11.3915 9.86439 11.4013 9.89545 11.4119C9.89621 11.4127 9.89621 11.4142 9.89697 11.415L9.93409 11.4521L9.58712 11.7991L9.16969 11.3816L9.4 11.1536ZM10.6318 11.5483C10.6447 11.5483 10.6576 11.5506 10.6697 11.5506C10.7045 11.5506 10.7394 11.5415 10.7742 11.54C10.8765 11.5354 10.9788 11.5271 11.0795 11.5097C11.1227 11.5021 11.1651 11.4938 11.2083 11.4839L11.3576 11.6332L11.003 11.9877L10.5598 11.5445C10.5848 11.546 10.6083 11.5476 10.6318 11.5483ZM11.6159 11.3544C11.6326 11.3476 11.6462 11.3362 11.6629 11.3286L11.6265 11.365L11.6159 11.3544ZM12.5636 10.9635L12.6538 10.8733C12.8492 11.0566 13.0258 11.2604 13.1689 11.4885L13.1295 11.5279L12.5636 10.9635ZM13.5886 12.5385C13.5924 12.5582 13.6015 12.5779 13.6045 12.5976C13.6576 12.9097 13.6508 13.2074 13.5886 13.4673L13.1235 13.0021L13.5886 12.5385ZM9.29924 8.71649C9.79848 7.53013 11.2303 7.46119 11.9015 8.34831C12.2394 8.79377 12.2924 9.4718 12.0295 9.99756C11.9742 10.1089 11.9023 10.2135 11.8189 10.3066C11.3462 10.8286 10.478 10.9521 9.88333 10.5748C9.74015 10.4839 9.6106 10.3612 9.49848 10.2089C9.49848 10.2089 9.49772 10.2089 9.49772 10.2082C9.17954 9.77028 9.10151 9.18468 9.29924 8.71649ZM13.247 14.1097C12.9432 14.4089 12.4651 14.5241 12.0818 14.5923C11.2932 14.7339 10.4962 14.7619 9.71212 14.6794C8.11666 14.5173 7.64469 13.7066 7.85833 12.7104C7.94697 12.2998 8.1856 11.8847 8.53787 11.4953C8.48484 11.5695 8.48257 11.6695 8.54924 11.7362C8.62424 11.8112 8.74393 11.8089 8.81742 11.7362L8.90227 11.6513L9.31969 12.0688L9.19015 12.1983C9.1159 12.2726 9.1159 12.3923 9.19015 12.4665C9.26363 12.54 9.38333 12.5407 9.45833 12.4665L9.58787 12.3369L9.72803 12.4771C9.80151 12.5506 9.92121 12.5513 9.99621 12.4771C10.0705 12.4029 10.0705 12.2832 9.99621 12.2089L9.85606 12.0688L10.203 11.7218L10.7371 12.2559L10.7348 12.2574C10.6606 12.3316 10.6606 12.4513 10.7348 12.5256C10.8076 12.5983 10.928 12.6006 11.003 12.5256L11.0045 12.5241L11.1227 12.6423C11.1962 12.7157 11.3159 12.7165 11.3909 12.6423C11.4651 12.568 11.4651 12.4483 11.3909 12.3741L11.2727 12.2559L11.6273 11.9013L12.1924 12.4657L11.9758 12.6824C11.9015 12.7566 11.9015 12.8763 11.9758 12.9506C12.0492 13.0241 12.1689 13.0248 12.2439 12.9506L13.1295 12.065L13.2379 12.1733C13.2735 12.2089 13.3197 12.2256 13.3667 12.2263L12.8568 12.7362C12.7826 12.6642 12.6651 12.6642 12.5917 12.7369C12.5182 12.8104 12.5189 12.9279 12.5909 13.0021L12.1439 13.4468C12.0697 13.521 12.0697 13.6407 12.1439 13.715C12.2174 13.7885 12.3371 13.7892 12.4121 13.715L12.8561 13.271L13.3689 13.7839C13.3939 13.8089 13.4273 13.8127 13.4583 13.821C13.4015 13.9301 13.3311 14.0279 13.247 14.1097C13.247 14.1097 13.247 14.1089 13.247 14.1097Z" fill="#FF4C60"/>
<path d="M12.5712 26.5568C12.2924 24.95 11.3621 23.5038 10.025 22.5909C10.4659 21.4432 10.3083 20.1007 9.58712 19.15C8.125 17.2121 4.775 17.1848 3.59773 19.9682C3.18561 20.9439 3.28788 22.1272 3.8394 23.081C3.48712 23.3469 3.1303 23.6219 2.79849 23.9492C1.93106 24.8098 1.38637 25.7356 1.17652 26.7015C0.725759 28.8076 1.77121 30.8038 5.0947 31.1371C6.49697 31.2848 7.89621 31.2295 9.26061 30.9848C11.9629 30.5076 12.9636 28.878 12.5712 26.5568ZM11.7439 28.353L11.2917 27.9007L11.7545 27.4379C11.7591 27.4379 11.7629 27.4432 11.7674 27.4432C11.8076 27.4432 11.8447 27.4227 11.878 27.3969C11.878 27.7394 11.8303 28.0583 11.7439 28.353ZM11.5477 25.6969C11.5364 25.7045 11.522 25.7015 11.5121 25.7121L11.003 26.2212L10.5349 25.753C10.5144 25.7326 10.4856 25.731 10.4599 25.7219L11.2 24.9818C11.3318 25.2129 11.4515 25.45 11.5477 25.6969ZM11.6773 26.0826C11.7371 26.281 11.7894 26.481 11.825 26.6848C11.8326 26.7318 11.8288 26.775 11.8356 26.8219L11.7197 26.9379L11.2712 26.4894L11.6773 26.0826ZM8.48106 25.5469L7.96061 25.0257L8.61591 24.3704L9.13712 24.8916L8.48106 25.5469ZM6.95606 25.4954L6.51818 25.0576L6.81212 24.7636C6.81212 24.7636 7.13864 24.7401 7.1394 24.7401L7.42576 25.0265L6.95606 25.4954ZM5.22273 24.6129L4.87879 24.2689L4.91591 24.2318C4.92576 24.2379 4.93409 24.2462 4.94394 24.2522C5.07803 24.3371 5.21818 24.4106 5.36212 24.4742L5.22273 24.6129ZM6.30303 24.7363L6.25 24.7894L6.17121 24.7106C6.21515 24.7182 6.25833 24.7303 6.30303 24.7363ZM7.59924 24.6644C7.59924 24.6644 7.8447 24.606 7.84546 24.6053L7.69318 24.7576L7.59924 24.6644ZM9.6803 23.2735C9.69167 23.2818 9.70152 23.2909 9.71288 23.2992C9.70152 23.2894 9.68637 23.2894 9.67349 23.2833C9.67424 23.2818 9.675 23.2803 9.67576 23.2795C9.67727 23.2772 9.67879 23.275 9.6803 23.2735ZM8.88409 24.1022C9.08864 23.8977 9.05985 24.0091 9.39773 23.6363C9.41818 23.6136 9.43409 23.5879 9.45455 23.5644C9.45682 23.5666 9.45531 23.5704 9.45758 23.5719L9.95682 24.0712L9.40455 24.6235L8.88409 24.1022ZM9.74924 23.328C9.92955 23.4621 10.0992 23.6098 10.2606 23.7666L10.2242 23.803L9.74924 23.328ZM10.525 24.0386C10.6303 24.1568 10.7318 24.278 10.8265 24.4053L10.4924 24.0712L10.525 24.0386ZM4.29621 20.2629C5.19091 18.1485 7.79243 18.0288 8.98334 19.6068C9.59167 20.4083 9.68788 21.6265 9.21743 22.5674L9.21667 22.5682C9.11667 22.7697 8.98788 22.9591 8.83561 23.1295C7.83106 24.2371 5.72955 24.4219 4.65227 22.9492C4.07727 22.1636 3.93788 21.1091 4.29621 20.2629ZM5.17273 30.3848C2.40909 30.106 1.53712 28.6394 1.91743 26.8613C2.09243 26.0545 2.58182 25.2333 3.33182 24.4879C3.53788 24.2848 3.76364 24.0992 3.99318 23.9197L4.34243 24.2689L4.07121 24.5401C3.99697 24.6144 3.99697 24.7341 4.07121 24.8083C4.1447 24.8818 4.2644 24.8826 4.3394 24.8083L4.61061 24.5371L4.95455 24.881L4.67879 25.1568C4.60455 25.231 4.60455 25.3507 4.67879 25.425C4.75152 25.4977 4.87197 25.5 4.94697 25.425L5.64773 24.7235L5.98182 25.0576L5.38712 25.6522C5.31288 25.7265 5.31288 25.8462 5.38712 25.9204C5.46061 25.9939 5.5803 25.9947 5.6553 25.9204L6.25 25.3257L6.68788 25.7636L6.56591 25.8856C6.49167 25.9598 6.49167 26.0795 6.56591 26.1538C6.6394 26.2272 6.75909 26.228 6.83409 26.1538L6.99167 25.9962C6.99621 25.9962 6.99924 26.0015 7.00455 26.0015C7.05303 26.0015 7.10152 25.9833 7.13864 25.9462C7.17879 25.906 7.19243 25.8522 7.18864 25.8L7.69318 25.2954L8.22879 25.8318C8.19167 25.903 8.19015 25.9886 8.25 26.0485C8.32349 26.1219 8.44318 26.1227 8.51818 26.0485L8.52046 26.0462C8.52197 26.0462 8.52273 26.0477 8.52349 26.0477C8.57121 26.0477 8.62046 26.0295 8.65758 25.9924C8.69546 25.9545 8.71288 25.9053 8.71212 25.8553L9.40606 25.1613L9.64621 25.4015C9.7197 25.475 9.8394 25.4757 9.9144 25.4015C9.98864 25.3272 9.98864 25.2076 9.9144 25.1333L9.67424 24.8932L10.2265 24.3409L10.6121 24.7265C10.6856 24.8 10.8053 24.8007 10.8803 24.7265C10.9386 24.6682 10.9379 24.5848 10.903 24.5144C10.9356 24.5598 10.9674 24.6053 10.9985 24.6515L9.39318 26.2568C9.31894 26.331 9.31894 26.4507 9.39318 26.525C9.46667 26.5985 9.58637 26.5992 9.66137 26.525L10.2379 25.9485C10.247 25.9742 10.2485 26.0022 10.2689 26.0235L10.7371 26.4916L10.2932 26.9356C10.2189 27.0098 10.2189 27.1295 10.2932 27.2038C10.3667 27.2772 10.4864 27.278 10.5614 27.2038L11.0053 26.7598L11.4538 27.2083L11.0265 27.6356L10.9114 27.5204C10.8371 27.4462 10.7174 27.4462 10.6432 27.5204C10.5689 27.5947 10.5689 27.7144 10.6432 27.7886L10.7583 27.9038L10.6674 27.9947C10.5932 28.0689 10.5932 28.1886 10.6674 28.2629C10.7409 28.3363 10.8606 28.3371 10.9356 28.2629L11.0265 28.1719L11.5152 28.6606C11.5432 28.6886 11.5803 28.6962 11.6167 28.703C11.3197 29.3682 10.85 29.9401 9.13106 30.2432C7.8144 30.475 6.48485 30.5227 5.17273 30.3848Z" fill="#FF4C60"/>
<path d="M35.8046 25.2409C35.8046 25.1364 35.7197 25.0515 35.6152 25.0515H32.9189C32.8144 25.0515 32.7296 25.1364 32.7296 25.2409C32.7296 25.3455 32.8144 25.4303 32.9189 25.4303H35.6152C35.7189 25.4303 35.8046 25.3447 35.8046 25.2409Z" fill="#FF4C60"/>
<path d="M31.822 25.1182C31.8129 25.0144 31.7311 24.928 31.6167 24.9462L31.3439 24.9705C31.0424 24.1583 30.25 23.5447 29.3833 23.4871C29.2924 23.4811 29.2015 23.4856 29.1114 23.4917C29.0523 22.9379 28.8561 22.4053 28.5523 21.9424L30.0871 20.4083C30.1614 20.3341 30.1614 20.2144 30.0871 20.1402C30.0136 20.0667 29.8939 20.0652 29.8189 20.1402L28.3189 21.6394C27.3614 20.4705 25.9462 20.1371 24.6341 20.5546L24.5826 18.625C24.5796 18.522 24.4955 18.4409 24.3932 18.4409C24.3917 18.4409 24.3902 18.4409 24.3879 18.4409C24.2833 18.4439 24.2008 18.5303 24.2038 18.6356L24.2576 20.6667C24.2576 20.678 24.2682 20.6849 24.2705 20.6955C23.8371 20.8871 23.447 21.1667 23.1235 21.5197C22.3258 21.0788 21.447 21.2258 20.8493 21.7015C20.8 21.7402 20.7659 21.7932 20.7212 21.8364L19.4849 20.6629C19.4091 20.5902 19.2894 20.5947 19.2167 20.6705C19.1447 20.7462 19.1477 20.8659 19.2243 20.9386L20.4644 22.1152C20.2341 22.4402 20.1083 22.8288 20.0871 23.2273C18.8894 23.2205 18.0576 24.0402 17.7546 25.0902H16.6993C16.5947 25.0902 16.5099 25.175 16.5099 25.2796C16.5099 25.3841 16.5947 25.4689 16.6993 25.4689H17.6727C17.6197 25.8159 17.6197 26.1758 17.6939 26.5326C17.9432 27.7235 18.8796 28.8924 20.6061 29.4894L19.3568 30.8068C19.2849 30.8826 19.2879 31.0023 19.3644 31.075C19.4371 31.1447 19.5568 31.1455 19.6326 31.0674L21.003 29.622C21.8212 29.8455 22.7083 29.9265 23.5561 29.9265C25.0485 29.9265 26.5985 29.6606 28.1765 29.1341C28.9614 28.8712 29.8561 28.5121 30.547 27.8349C31.2561 27.1417 31.5917 26.1849 31.4447 25.3424L31.6508 25.3235C31.7546 25.3144 31.8311 25.2227 31.822 25.1182ZM30.0167 27.2939C29.4349 27.8644 28.6386 28.1811 27.9364 28.4152C23.8167 29.7932 19.0591 29.3674 18.4349 26.3788C18.1659 25.0849 19.1038 23.6629 20.5038 24.0318C20.878 24.1303 21.1735 24.3462 21.3364 24.6402C21.4386 24.8235 21.6697 24.8879 21.8515 24.7879C22.0341 24.6864 22.1008 24.4561 21.9993 24.2727C21.7583 23.8379 21.3462 23.5197 20.8394 23.3508C20.8349 22.9508 21.0099 22.5424 21.3212 22.2939C22.0962 21.6773 23.2924 22.1212 23.4402 23.1303C23.4712 23.3371 23.6599 23.4735 23.8705 23.45C24.0773 23.4189 24.2205 23.2265 24.1902 23.0197C24.1341 22.6386 23.9606 22.2856 23.7136 21.9932C24.4349 21.2424 25.6189 20.9379 26.597 21.2947C27.575 21.65 28.2849 22.6379 28.3583 23.6727C27.8265 23.903 27.3765 24.3303 27.1515 24.8652C27.0705 25.0583 27.1614 25.2803 27.3546 25.3606C27.5485 25.4409 27.7697 25.35 27.85 25.1576C28 24.8015 28.3159 24.5273 28.678 24.3743C28.6939 24.3773 28.7076 24.3856 28.7235 24.3864C28.7311 24.3871 28.7386 24.3871 28.7455 24.3871C28.8493 24.3871 28.9424 24.3439 29.0114 24.2758C29.1174 24.2583 29.2235 24.2364 29.3311 24.2447C29.9386 24.2856 30.5167 24.7599 30.6758 25.3485C30.8455 25.9727 30.5864 26.7364 30.0167 27.2939Z" fill="#FF4C60"/>
<path d="M12.8909 25.2409C12.8909 25.3455 12.9758 25.4303 13.0803 25.4303H15.7765C15.8811 25.4303 15.9659 25.3455 15.9659 25.2409C15.9659 25.1364 15.8811 25.0515 15.7765 25.0515H13.0803C12.9765 25.0515 12.8909 25.1364 12.8909 25.2409Z" fill="#FF4C60"/>
<path d="M24.3091 14.6498V17.3461C24.3091 17.4506 24.3939 17.5354 24.4985 17.5354C24.603 17.5354 24.6879 17.4506 24.6879 17.3461V14.6498C24.6879 14.5453 24.603 14.4604 24.4985 14.4604C24.3939 14.4604 24.3091 14.5453 24.3091 14.6498Z" fill="#FF4C60"/>
<path d="M24.3485 30.9362V33.5658C24.3485 33.6703 24.4333 33.7552 24.5379 33.7552C24.6424 33.7552 24.7273 33.6703 24.7273 33.5658V30.9362C24.7273 30.8317 24.6424 30.7468 24.5379 30.7468C24.4333 30.7468 24.3485 30.8317 24.3485 30.9362Z" fill="#FF4C60"/>
<path d="M14.2629 15.2378C14.1886 15.1636 14.0689 15.1636 13.9947 15.2378C13.9205 15.3121 13.9205 15.4318 13.9947 15.506L15.8538 17.3651C15.9273 17.4386 16.047 17.4393 16.122 17.3651C16.1962 17.2908 16.1962 17.1711 16.122 17.0969L14.2629 15.2378Z" fill="#FF4C60"/>
<path d="M18.653 19.9514C18.7273 19.8771 18.7273 19.7574 18.653 19.6832L16.7462 17.7764C16.672 17.7021 16.5523 17.7021 16.478 17.7764C16.4038 17.8506 16.4038 17.9703 16.478 18.0446L18.3848 19.9514C18.4591 20.0249 18.5788 20.0256 18.653 19.9514Z" fill="#FF4C60"/>
<path d="M28.0227 29.2659C27.9485 29.3401 27.9485 29.4598 28.0227 29.5341L29.8818 31.3932C29.9553 31.4666 30.075 31.4674 30.15 31.3932C30.2242 31.3189 30.2242 31.1992 30.15 31.125L28.2909 29.2659C28.2167 29.1916 28.097 29.1916 28.0227 29.2659Z" fill="#FF4C60"/>
<path d="M30.7742 31.8052C30.7 31.731 30.5803 31.731 30.5061 31.8052C30.4318 31.8794 30.4318 31.9991 30.5061 32.0734L32.4129 33.9802C32.4864 34.0537 32.6061 34.0544 32.6811 33.9802C32.7553 33.906 32.7553 33.7863 32.6811 33.712L30.7742 31.8052Z" fill="#FF4C60"/>
<path d="M33.5121 34.6909C33.4364 34.6182 33.3167 34.6227 33.2439 34.6985C33.172 34.7742 33.175 34.8939 33.2515 34.9667L34.725 36.3651C34.7977 36.4348 34.9174 36.4356 34.9932 36.3576C35.0651 36.2818 35.0621 36.1621 34.9856 36.0894L33.5121 34.6909Z" fill="#FF4C60"/>
<path d="M15.7909 34.1697L13.9311 36.0288C13.8568 36.103 13.8568 36.2227 13.9311 36.297C14.0061 36.372 14.1258 36.3697 14.1992 36.297L16.0591 34.4379C16.1333 34.3636 16.1333 34.2439 16.0591 34.1697C15.9849 34.0962 15.8644 34.0947 15.7909 34.1697Z" fill="#FF4C60"/>
<path d="M18.3765 31.6387L16.4705 33.5455C16.3962 33.6197 16.3962 33.7394 16.4705 33.8137C16.5432 33.8864 16.6636 33.8887 16.7386 33.8137L18.6447 31.9069C18.7189 31.8326 18.7189 31.7129 18.6447 31.6387C18.5705 31.5644 18.45 31.5644 18.3765 31.6387Z" fill="#FF4C60"/>
<path d="M32.672 17.6106C32.597 17.5356 32.4773 17.5371 32.4038 17.6106L30.4977 19.5174C30.4235 19.5917 30.4235 19.7114 30.4977 19.7856C30.5712 19.8591 30.6909 19.8599 30.7659 19.7856L32.672 17.8788C32.7455 17.8046 32.7455 17.6849 32.672 17.6106Z" fill="#FF4C60"/>
<path d="M34.7818 15.3054L33.3841 16.7788C33.3121 16.8546 33.3151 16.9743 33.3917 17.047C33.4644 17.1167 33.5841 17.1175 33.6598 17.0395L35.0576 15.566C35.1295 15.4902 35.1265 15.3705 35.05 15.2978C34.9742 15.2258 34.8545 15.2296 34.7818 15.3054Z" fill="#FF4C60"/>
</svg>
