<svg width="50" height="50" viewBox="0 0 50 50" fill="none" xmlns="http://www.w3.org/2000/svg">
<g clip-path="url(#clip0_800_181)">
<path d="M43.4945 25.8647V26.2571" stroke="#FF4C60" stroke-width="2" stroke-miterlimit="10" stroke-linecap="round" stroke-linejoin="round"/>
<path d="M43.4945 31.0273V31.4197" stroke="#FF4C60" stroke-width="2" stroke-miterlimit="10" stroke-linecap="round" stroke-linejoin="round"/>
<path d="M46.2721 28.6423H45.8797" stroke="#FF4C60" stroke-width="2" stroke-miterlimit="10" stroke-linecap="round" stroke-linejoin="round"/>
<path d="M41.1094 28.6423H40.717" stroke="#FF4C60" stroke-width="2" stroke-miterlimit="10" stroke-linecap="round" stroke-linejoin="round"/>
<path d="M6.50546 25.8647V26.2571" stroke="#FF4C60" stroke-width="2" stroke-miterlimit="10" stroke-linecap="round" stroke-linejoin="round"/>
<path d="M6.50546 31.0273V31.4197" stroke="#FF4C60" stroke-width="2" stroke-miterlimit="10" stroke-linecap="round" stroke-linejoin="round"/>
<path d="M9.28301 28.6423H8.89062" stroke="#FF4C60" stroke-width="2" stroke-miterlimit="10" stroke-linecap="round" stroke-linejoin="round"/>
<path d="M4.12032 28.6423H3.72794" stroke="#FF4C60" stroke-width="2" stroke-miterlimit="10" stroke-linecap="round" stroke-linejoin="round"/>
<path d="M30.5151 44.3032C32.4429 44.3032 34.0058 42.7404 34.0058 40.8125C34.0058 38.8846 32.4429 37.3218 30.5151 37.3218C28.5872 37.3218 27.0244 38.8846 27.0244 40.8125C27.0244 42.7404 28.5872 44.3032 30.5151 44.3032Z" stroke="#FF4C60" stroke-width="2" stroke-miterlimit="10" stroke-linecap="round" stroke-linejoin="round"/>
<path d="M27.1949 49.0235C29.0286 47.1898 32.0016 47.1898 33.8352 49.0235" stroke="#FF4C60" stroke-width="2" stroke-miterlimit="10" stroke-linecap="round" stroke-linejoin="round"/>
<path d="M41.5451 44.3032C43.473 44.3032 45.0358 42.7404 45.0358 40.8125C45.0358 38.8846 43.473 37.3218 41.5451 37.3218C39.6172 37.3218 38.0544 38.8846 38.0544 40.8125C38.0544 42.7404 39.6172 44.3032 41.5451 44.3032Z" stroke="#FF4C60" stroke-width="2" stroke-miterlimit="10" stroke-linecap="round" stroke-linejoin="round"/>
<path d="M38.225 49.0235C40.0587 47.1898 43.0316 47.1898 44.8652 49.0235" stroke="#FF4C60" stroke-width="2" stroke-miterlimit="10" stroke-linecap="round" stroke-linejoin="round"/>
<path d="M19.485 44.3032C21.4129 44.3032 22.9757 42.7404 22.9757 40.8125C22.9757 38.8846 21.4129 37.3218 19.485 37.3218C17.5571 37.3218 15.9943 38.8846 15.9943 40.8125C15.9943 42.7404 17.5571 44.3032 19.485 44.3032Z" stroke="#FF4C60" stroke-width="2" stroke-miterlimit="10" stroke-linecap="round" stroke-linejoin="round"/>
<path d="M16.1649 49.0235C17.9985 47.1898 20.9715 47.1898 22.8051 49.0235" stroke="#FF4C60" stroke-width="2" stroke-miterlimit="10" stroke-linecap="round" stroke-linejoin="round"/>
<path d="M8.4549 44.3032C10.3828 44.3032 11.9456 42.7404 11.9456 40.8125C11.9456 38.8846 10.3828 37.3218 8.4549 37.3218C6.52702 37.3218 4.96417 38.8846 4.96417 40.8125C4.96417 42.7404 6.52702 44.3032 8.4549 44.3032Z" stroke="#FF4C60" stroke-width="2" stroke-miterlimit="10" stroke-linecap="round" stroke-linejoin="round"/>
<path d="M5.13477 49.0235C6.96846 47.1898 9.94141 47.1898 11.775 49.0235" stroke="#FF4C60" stroke-width="2" stroke-miterlimit="10" stroke-linecap="round" stroke-linejoin="round"/>
<path d="M40.5488 16.5253C40.5488 7.93799 33.5873 0.976562 25 0.976562C16.4127 0.976562 9.45129 7.93799 9.45129 16.5253C9.45129 24.5342 15.5065 31.1287 23.2885 31.9809L25 34.6211L26.7114 31.9809C34.4936 31.1287 40.5488 24.5342 40.5488 16.5253Z" stroke="#FF4C60" stroke-width="2" stroke-miterlimit="10" stroke-linecap="round" stroke-linejoin="round"/>
<path d="M37.0117 16.262C37.0117 16.262 32.2791 24.8253 25 24.8253C17.7209 24.8253 12.9883 16.262 12.9883 16.262C12.9883 16.262 17.7209 7.69873 25 7.69873C32.2791 7.69873 37.0117 16.262 37.0117 16.262Z" stroke="#FF4C60" stroke-width="2" stroke-miterlimit="10" stroke-linecap="round" stroke-linejoin="round"/>
<path d="M27.4987 15.8217C26.5371 15.8217 25.7575 15.0421 25.7575 14.0805C25.7575 13.5891 25.9611 13.1452 26.2885 12.8286C25.8876 12.6781 25.4534 12.5957 25 12.5957C22.9752 12.5957 21.3338 14.2371 21.3338 16.2619C21.3338 18.2867 22.9752 19.9281 25 19.9281C27.0248 19.9281 28.6662 18.2867 28.6662 16.2619C28.6662 15.9824 28.6349 15.7104 28.5757 15.4488C28.2793 15.6823 27.9053 15.8217 27.4987 15.8217Z" stroke="#FF4C60" stroke-width="2" stroke-miterlimit="10" stroke-linecap="round" stroke-linejoin="round"/>
</g>
<defs>
<clipPath id="clip0_800_181">
<rect width="50" height="50" fill="white"/>
</clipPath>
</defs>
</svg>
