<svg width="86" height="59" viewBox="0 0 86 59" fill="none" xmlns="http://www.w3.org/2000/svg">
<g opacity="0.05">
<path d="M70.2744 1.66481C77.5031 8.62387 82.5747 18.2557 84.4848 28.6047C85.1599 32.3368 85.3575 38.9862 84.88 42.1643C84.386 45.4727 83.1346 48.6833 81.3397 51.2583C76.8774 57.6632 68.6936 60.4664 60.9709 58.25C57.9411 57.3862 55.4876 55.9194 53.1 53.5563C50.7783 51.2583 49.5433 49.3026 48.5718 46.4342C46.9746 41.7242 47.3203 36.6068 49.5104 32.2227C52.1614 26.8934 57.4636 22.9983 63.1609 22.1671C65.5321 21.8249 65.2851 22.0368 65.1698 20.3907C64.9228 16.9682 63.622 13.4968 61.152 9.56913C59.703 7.30376 59.5713 7.62971 63.7537 3.49013C68.1667 -0.861317 67.755 -0.747234 70.2744 1.66481ZM64.0501 8.85203C65.6638 11.4759 67.0305 14.8006 67.6068 17.6201C67.9691 19.3314 68.035 22.6398 67.7221 23.5198C67.4092 24.351 67.0141 24.5629 65.3839 24.677C59.4066 25.1496 54.2856 28.6373 51.7992 33.9503C50.6959 36.2971 50.4819 37.4054 50.4983 40.5019C50.4983 43.0443 50.5477 43.4029 50.9594 44.7393C52.6225 50.1501 56.9531 54.3059 62.42 55.7564C64.3794 56.2779 68.3149 56.2942 70.1921 55.7727C76.6962 53.9963 81.1422 48.667 82.1795 41.4146C82.4265 39.6218 82.3936 33.9829 82.0972 31.7012C81.6526 28.1321 80.9116 24.9866 79.7919 21.8412C77.4866 15.3711 73.5676 9.0639 68.6936 4.02795L67.9362 3.26197L65.6638 5.51103L63.375 7.77639L64.0501 8.85203Z" fill="#101010"/>
<path d="M24.1355 2.33313C32.0888 10.3515 37.0451 21.0101 38.2307 32.6466C38.5106 35.4498 38.3295 41.3495 37.9178 43.3541C35.9913 52.497 29.1742 58.576 20.4141 58.9509C15.1285 59.179 10.4685 57.4841 6.69771 53.9475C3.70084 51.128 1.82368 47.7381 1.0827 43.7615C0.703976 41.7895 0.819241 37.7966 1.29676 36.0039C3.17392 29.0285 8.41021 23.9437 15.4084 22.3302C16.1823 22.151 17.088 22.0043 17.4337 22.0043C18.4547 22.0043 18.5205 21.8902 18.3888 20.293C18.1089 16.952 16.8739 13.6436 14.3875 9.58554C13.4983 8.15136 13.3336 7.77652 13.416 7.38537C13.4983 7.05942 14.5521 5.886 16.8574 3.60434C18.7017 1.79531 20.3153 0.230743 20.4471 0.149254C20.5788 0.0677643 20.9411 0.00257492 21.2539 0.00257492C21.7809 0.00257492 22.0278 0.214443 24.1355 2.33313ZM17.7137 9.61814C20.1836 13.9044 21.5339 18.9403 21.1057 22.3139C20.8423 24.4163 20.727 24.5141 18.6029 24.6771C11.7364 25.2149 6.22019 29.599 4.17837 36.1343C3.76671 37.4544 3.73378 37.7803 3.73378 40.4205C3.73378 43.0607 3.76671 43.3867 4.17837 44.7068C5.64387 49.3842 8.54194 52.7415 12.9055 54.7624C15.2273 55.838 16.6763 56.1477 19.525 56.1477C21.5833 56.1477 22.2254 56.0825 23.3945 55.7728C29.0425 54.2735 33.4061 49.7264 34.9045 43.8104C35.4314 41.7569 35.5632 40.3065 35.5796 36.9981C35.5796 29.8434 34.1306 23.5037 30.9855 17.0335C28.6802 12.2909 26.2432 8.77067 22.3078 4.50071L21.1716 3.27839L18.8992 5.51115L16.6434 7.74392L17.7137 9.61814Z" fill="#101010"/>
</g>
</svg>
