<svg width="11" height="11" viewBox="0 0 11 11" fill="none" xmlns="http://www.w3.org/2000/svg">
<g opacity="0.7" clip-path="url(#clip0_1287_25)">
<path d="M10.0147 10.2862C10.0316 10.3624 10.0312 10.4415 10.0137 10.5177C9.99622 10.5938 9.96198 10.6651 9.91348 10.7263C9.86498 10.7876 9.80344 10.8373 9.73335 10.8717C9.66325 10.9062 9.58635 10.9247 9.50823 10.9258C9.42763 10.9253 9.34818 10.9066 9.27588 10.8709L8.35171 10.4193C7.48807 10.7347 6.54231 10.7439 5.67266 10.4455C4.80301 10.1471 4.06222 9.55904 3.57422 8.7798C4.22806 8.86458 4.89242 8.81082 5.52413 8.62201C6.15583 8.43321 6.74073 8.11359 7.24081 7.68392C7.7409 7.25426 8.14497 6.72417 8.42677 6.12811C8.70857 5.53205 8.86178 4.88337 8.87645 4.22422C8.87672 3.92512 8.8461 3.62679 8.78508 3.33398C9.41018 3.63718 9.94176 4.10362 10.3236 4.68401C10.7055 5.2644 10.9235 5.93718 10.9545 6.63124C10.9752 7.1575 10.8861 7.68229 10.6928 8.17221C10.4995 8.66213 10.2063 9.10644 9.83195 9.47685L10.0147 10.2862Z" fill="white"/>
<path d="M4.17704 0.148695C3.08333 0.136495 2.02941 0.55851 1.24639 1.3222C0.463362 2.0859 0.0151387 3.12894 8.88036e-07 4.22262C-0.00036999 4.77787 0.115433 5.32706 0.339966 5.83489C0.5645 6.34272 0.892798 6.79796 1.30376 7.17135L1.13563 8.06889C1.12164 8.14425 1.12437 8.22177 1.14363 8.29596C1.16289 8.37015 1.19821 8.43921 1.24709 8.49825C1.29597 8.55729 1.35722 8.60488 1.42652 8.63764C1.49581 8.67041 1.57146 8.68756 1.64811 8.68788C1.73479 8.68772 1.82008 8.66611 1.89638 8.62496L2.88529 8.09369C3.30282 8.22762 3.73856 8.29614 4.17704 8.2968C5.2708 8.309 6.32476 7.88695 7.10779 7.1232C7.89083 6.35945 8.33902 5.31634 8.35409 4.22262C8.33895 3.12894 7.89073 2.0859 7.1077 1.3222C6.32468 0.55851 5.27076 0.136495 4.17704 0.148695ZM2.61065 4.84787C2.50739 4.84787 2.40644 4.81725 2.32057 4.75987C2.23471 4.7025 2.16779 4.62096 2.12827 4.52555C2.08875 4.43014 2.07841 4.32516 2.09856 4.22388C2.1187 4.12259 2.16843 4.02956 2.24145 3.95654C2.31447 3.88351 2.40751 3.83379 2.50879 3.81364C2.61007 3.79349 2.71506 3.80383 2.81046 3.84335C2.90587 3.88287 2.98742 3.94979 3.04479 4.03566C3.10216 4.12152 3.13278 4.22247 3.13278 4.32574C3.13278 4.46422 3.07777 4.59702 2.97986 4.69494C2.88194 4.79286 2.74913 4.84787 2.61065 4.84787ZM4.17704 4.84787C4.07378 4.84787 3.97283 4.81725 3.88696 4.75987C3.8011 4.7025 3.73418 4.62096 3.69466 4.52555C3.65514 4.43014 3.6448 4.32516 3.66495 4.22388C3.68509 4.12259 3.73482 4.02956 3.80784 3.95654C3.88086 3.88351 3.9739 3.83379 4.07518 3.81364C4.17647 3.79349 4.28145 3.80383 4.37686 3.84335C4.47226 3.88287 4.55381 3.94979 4.61118 4.03566C4.66855 4.12152 4.69917 4.22247 4.69917 4.32574C4.69917 4.46422 4.64416 4.59702 4.54625 4.69494C4.44833 4.79286 4.31552 4.84787 4.17704 4.84787ZM5.74344 4.84787C5.64017 4.84787 5.53922 4.81725 5.45336 4.75987C5.36749 4.7025 5.30057 4.62096 5.26105 4.52555C5.22153 4.43014 5.21119 4.32516 5.23134 4.22388C5.25148 4.12259 5.30121 4.02956 5.37423 3.95654C5.44726 3.88351 5.54029 3.83379 5.64157 3.81364C5.74286 3.79349 5.84784 3.80383 5.94325 3.84335C6.03865 3.88287 6.1202 3.94979 6.17757 4.03566C6.23494 4.12152 6.26557 4.22247 6.26557 4.32574C6.26557 4.46422 6.21056 4.59702 6.11264 4.69494C6.01472 4.79286 5.88191 4.84787 5.74344 4.84787Z" fill="white"/>
</g>
<defs>
<clipPath id="clip0_1287_25">
<rect width="11" height="11" fill="white"/>
</clipPath>
</defs>
</svg>
