<svg width="39" height="39" viewBox="0 0 39 39" fill="none" xmlns="http://www.w3.org/2000/svg">
<path d="M12.4483 7.75873C11.2588 8.20808 10.4065 9.3491 10.4065 10.6938C10.4065 11.2116 10.5444 11.6935 10.7671 12.125C9.82353 12.4878 9.14844 13.3975 9.14844 14.4679C9.14844 15.5386 9.82353 16.448 10.7671 16.811C10.5444 17.2426 10.4065 17.7245 10.4065 18.242C10.4065 19.587 11.2588 20.728 12.4483 21.177C12.354 21.4405 12.2935 21.7207 12.2935 22.0161C12.2935 23.4038 13.422 24.5322 14.8096 24.5322C15.1229 24.5322 15.4199 24.4674 15.6966 24.363C16.1042 25.2042 16.959 25.7902 17.9547 25.7902C19.3424 25.7902 20.4708 24.6618 20.4708 23.2742V5.66159C20.4708 4.27424 19.3424 3.14551 17.9547 3.14551C16.959 3.14551 16.1042 3.73184 15.6966 4.57278C15.4199 4.46836 15.1229 4.40355 14.8096 4.40355C13.422 4.40355 12.2935 5.53228 12.2935 6.91963C12.2935 7.21541 12.354 7.49521 12.4483 7.75873ZM14.8096 5.66159C15.5034 5.66159 16.0677 6.2258 16.0677 6.91963H17.3257C17.3257 6.31518 17.1024 5.76663 16.7458 5.33264C16.8917 4.79945 17.3755 4.40355 17.9547 4.40355C18.6486 4.40355 19.2128 4.96776 19.2128 5.66159V23.2742C19.2128 23.968 18.6486 24.5322 17.9547 24.5322C17.3755 24.5322 16.8917 24.1366 16.7458 23.6031C17.1024 23.1691 17.3257 22.6209 17.3257 22.0161H16.0677C16.0677 22.7099 15.5034 23.2742 14.8096 23.2742C14.1158 23.2742 13.5516 22.7099 13.5516 22.0161C13.5516 21.3223 14.1158 20.7581 14.8096 20.7581V19.5C14.1969 19.5 13.6422 19.7292 13.2057 20.094C12.3301 19.931 11.6645 19.1643 11.6645 18.242C11.6645 17.2017 12.5113 16.3549 13.5516 16.3549C14.5922 16.3549 15.4386 17.2017 15.4386 18.242H16.6967C16.6967 16.5079 15.286 15.0969 13.5516 15.0969C12.8409 15.0969 12.1916 15.3429 11.6645 15.7425V15.7259C10.9707 15.7259 10.4065 15.1617 10.4065 14.4679C10.4065 13.774 10.9707 13.2098 11.6645 13.2098V13.1936C12.1916 13.5931 12.8409 13.8389 13.5516 13.8389C15.286 13.8389 16.6967 12.4282 16.6967 10.6938H15.4386C15.4386 11.7343 14.5922 12.5808 13.5516 12.5808C12.5113 12.5808 11.6645 11.7343 11.6645 10.6938C11.6645 9.77172 12.3301 9.0051 13.2057 8.84201C13.6422 9.20689 14.1969 9.43571 14.8096 9.43571V8.17767C14.1158 8.17767 13.5516 7.61346 13.5516 6.91963C13.5516 6.2258 14.1158 5.66159 14.8096 5.66159Z" fill="#548F6F"/>
<path d="M27.3897 4.40355C27.0764 4.40355 26.7797 4.46836 26.503 4.57278C26.0951 3.73184 25.2403 3.14551 24.2446 3.14551C22.8569 3.14551 21.7285 4.27424 21.7285 5.66159V23.2742C21.7285 24.6618 22.8569 25.7902 24.2446 25.7902C25.2403 25.7902 26.0951 25.2042 26.503 24.363C26.7797 24.4674 27.0764 24.5322 27.3897 24.5322C28.7774 24.5322 29.9058 23.4038 29.9058 22.0161C29.9058 21.7207 29.8456 21.4405 29.751 21.177C30.9405 20.728 31.7928 19.587 31.7928 18.242C31.7928 17.7245 31.6552 17.2426 31.4326 16.811C32.3761 16.448 33.0509 15.5386 33.0509 14.4679C33.0509 13.3975 32.3761 12.4878 31.4326 12.125C31.6552 11.6935 31.7928 11.2116 31.7928 10.6938C31.7928 9.3491 30.9405 8.20808 29.751 7.75873C29.8456 7.49521 29.9058 7.21541 29.9058 6.91963C29.9058 5.53228 28.7774 4.40355 27.3897 4.40355ZM30.5348 10.6938C30.5348 11.7343 29.6883 12.5808 28.6477 12.5808C27.6075 12.5808 26.7607 11.7343 26.7607 10.6938H25.5026C25.5026 12.4282 26.9136 13.8389 28.6477 13.8389C29.3585 13.8389 30.0078 13.5931 30.5348 13.1936V13.2098C31.2286 13.2098 31.7928 13.774 31.7928 14.4679C31.7928 15.1617 31.2286 15.7259 30.5348 15.7259V15.7425C30.0078 15.3429 29.3585 15.0969 28.6477 15.0969C26.9136 15.0969 25.5026 16.5079 25.5026 18.242H26.7607C26.7607 17.2017 27.6075 16.3549 28.6477 16.3549C29.6883 16.3549 30.5348 17.2017 30.5348 18.242C30.5348 19.1643 29.8692 19.931 28.9939 20.094C28.5571 19.7292 28.0024 19.5 27.3897 19.5V20.7581C28.0835 20.7581 28.6477 21.3223 28.6477 22.0161C28.6477 22.7099 28.0835 23.2742 27.3897 23.2742C26.6959 23.2742 26.1317 22.7099 26.1317 22.0161H24.8736C24.8736 22.6209 25.0969 23.1691 25.4535 23.6031C25.3076 24.1366 24.8239 24.5322 24.2446 24.5322C23.5508 24.5322 22.9866 23.968 22.9866 23.2742V5.66159C22.9866 4.96776 23.5508 4.40355 24.2446 4.40355C24.8239 4.40355 25.3076 4.79945 25.4535 5.33264C25.0969 5.76663 24.8736 6.31518 24.8736 6.91963H26.1317C26.1317 6.2258 26.6959 5.66159 27.3897 5.66159C28.0835 5.66159 28.6477 6.2258 28.6477 6.91963C28.6477 7.61346 28.0835 8.17767 27.3897 8.17767V9.43571C28.0024 9.43571 28.5571 9.20689 28.9939 8.84201C29.8692 9.0051 30.5348 9.77172 30.5348 10.6938Z" fill="#548F6F"/>
<path d="M31.005 3.92331C28.0657 1.16059 24.216 -0.224602 20.1759 0.0297088L20.254 1.28499C23.9455 1.05555 27.4591 2.31789 30.1438 4.83981C32.8298 7.36388 34.3092 10.7839 34.3092 14.468C34.3092 18.9077 32.0963 23.0246 28.3894 25.4811C27.1108 26.3288 26.1433 27.538 25.5472 28.9355H16.6263C16.0219 27.5279 15.0507 26.31 13.7699 25.4547C9.94975 22.9014 7.75463 18.6374 7.89745 14.0466L6.64002 14.0076C6.48338 19.0348 8.88797 23.7052 13.0712 26.5002C13.9951 27.1178 14.7328 27.9588 15.247 28.9355H13.5516V30.1935H15.7488C15.8708 30.6011 15.9684 31.0188 16.0179 31.4515H14.8096V32.7096H16.0676V34.5967C16.0676 34.9446 16.3496 35.2257 16.6967 35.2257H17.3257C17.3257 37.3072 19.0183 38.9998 21.0998 38.9998C23.1813 38.9998 24.8739 37.3072 24.8739 35.2257H25.503C25.8503 35.2257 26.132 34.9446 26.132 34.5967V32.7096H27.39V31.4515H26.1762C26.2207 31.0194 26.3095 30.6005 26.429 30.1935H28.6481V28.9355H26.9253C27.4321 27.9695 28.1655 27.139 29.0848 26.5303C33.1437 23.8385 35.5673 19.3297 35.5673 14.468C35.5673 10.4915 33.9041 6.64763 31.005 3.92331ZM21.0998 37.7418C19.7122 37.7418 18.5837 36.6133 18.5837 35.2257H23.6159C23.6159 36.6133 22.4875 37.7418 21.0998 37.7418ZM24.8739 33.9676H17.3257V32.7096H24.8739V33.9676ZM24.9188 31.4515H17.2753C17.2332 31.0234 17.1654 30.6026 17.0622 30.1935H25.1144C25.0143 30.602 24.9562 31.0246 24.9188 31.4515Z" fill="#548F6F"/>
<path d="M6.00304 4.40412C7.3907 4.40412 8.51913 5.53285 8.51913 6.9202C8.51913 7.26819 8.80108 7.54922 9.14815 7.54922C9.49552 7.54922 9.77717 7.26819 9.77717 6.9202C9.77717 5.53285 10.9056 4.40412 12.2932 4.40412C12.6406 4.40412 12.9223 4.12309 12.9223 3.7751C12.9223 3.42742 12.6406 3.14608 12.2932 3.14608C10.9056 3.14608 9.77717 2.01765 9.77717 0.629997C9.77717 0.282316 9.49552 0.000976562 9.14815 0.000976562C8.80108 0.000976562 8.51913 0.282316 8.51913 0.629997C8.51913 2.01765 7.3907 3.14608 6.00304 3.14608C5.65598 3.14608 5.37402 3.42742 5.37402 3.7751C5.37402 4.12309 5.65598 4.40412 6.00304 4.40412ZM9.14815 2.71393C9.42764 3.1341 9.78914 3.49591 10.2093 3.7751C9.78914 4.0546 9.42764 4.4161 9.14815 4.83626C8.86896 4.4161 8.50715 4.0546 8.08698 3.7751C8.50715 3.49591 8.86896 3.1341 9.14815 2.71393Z" fill="#548F6F"/>
<path d="M8.51883 10.6942C8.86621 10.6942 9.14785 10.4131 9.14785 10.0651C9.14785 9.71746 8.86621 9.43612 8.51883 9.43612C7.13118 9.43612 6.00275 8.30769 6.00275 6.92004C6.00275 6.57235 5.72111 6.29102 5.37373 6.29102C5.02666 6.29102 4.74471 6.57235 4.74471 6.92004C4.74471 8.30769 3.61628 9.43612 2.22863 9.43612C1.88156 9.43612 1.59961 9.71746 1.59961 10.0651C1.59961 10.4131 1.88156 10.6942 2.22863 10.6942C3.61628 10.6942 4.74471 11.8229 4.74471 13.2102C4.74471 13.5582 5.02666 13.8393 5.37373 13.8393C5.72111 13.8393 6.00275 13.5582 6.00275 13.2102C6.00275 11.8229 7.13118 10.6942 8.51883 10.6942ZM5.37373 11.1263C5.09454 10.7061 4.73273 10.3446 4.31257 10.0651C4.73273 9.78595 5.09393 9.42414 5.37373 9.00397C5.65323 9.42414 6.01473 9.78533 6.4349 10.0651C6.01473 10.3446 5.65323 10.7061 5.37373 11.1263Z" fill="#548F6F"/>
</svg>
