<svg width="11" height="11" viewBox="0 0 11 11" fill="none" xmlns="http://www.w3.org/2000/svg">
<g opacity="0.7" clip-path="url(#clip0_1287_17)">
<path d="M0.321787 8.40062H8.74404C8.81958 8.40062 8.89259 8.3742 8.95049 8.32603C9.03138 8.25828 10.8767 6.67084 10.9892 3.24414H1.94389C1.8318 6.35466 0.132351 7.81669 0.11469 7.83128C0.0111518 7.91877 -0.0269417 8.06167 0.0196385 8.18882C0.0658964 8.31565 0.186451 8.40062 0.321787 8.40062Z" fill="white"/>
<path d="M10.6781 1.31058H9.06673V0.988296C9.06673 0.807819 8.92492 0.666016 8.74445 0.666016C8.56397 0.666016 8.42217 0.807819 8.42217 0.988296V1.31058H6.78928V0.988296C6.78928 0.807819 6.64748 0.666016 6.467 0.666016C6.28652 0.666016 6.14472 0.807819 6.14472 0.988296V1.31058H4.53332V0.988296C4.53332 0.807819 4.39152 0.666016 4.21104 0.666016C4.03056 0.666016 3.88876 0.807819 3.88876 0.988296V1.31058H2.27736C2.09688 1.31058 1.95508 1.45238 1.95508 1.63286V2.5997H11.0004V1.63286C11.0004 1.45238 10.8586 1.31058 10.6781 1.31058Z" fill="white"/>
<path d="M9.36477 8.82021C9.18977 8.96592 8.97011 9.04525 8.74445 9.04525H1.95508V10.0121C1.95508 10.1902 2.09922 10.3344 2.27736 10.3344H10.6781C10.8563 10.3344 11.0004 10.1902 11.0004 10.0121V6.39941C10.3791 7.92382 9.51199 8.69699 9.36477 8.82021Z" fill="white"/>
</g>
<defs>
<clipPath id="clip0_1287_17">
<rect width="11" height="11" fill="white"/>
</clipPath>
</defs>
</svg>
