<svg width="39" height="39" viewBox="0 0 39 39" fill="none" xmlns="http://www.w3.org/2000/svg">
<g clip-path="url(#clip0_757_68)">
<path d="M14.7262 23.6113C16.3303 18.3821 19.3825 15.224 19.3825 15.224V11.5906L13.7656 6.97844L18.7084 2.54752C20.0513 1.34324 22.0882 1.35086 23.4219 2.56504L23.949 3.04492C25.1663 4.15398 27.0279 4.15398 28.2459 3.04492L28.773 2.56504C29.8158 1.61594 31.2882 1.40418 32.5229 1.93281" stroke="#548F6F" stroke-width="1.3" stroke-miterlimit="10" stroke-linecap="round" stroke-linejoin="round"/>
<path d="M34.3365 3.31031L38.4285 6.97799L32.8115 11.5902V15.2236C32.8115 15.2236 38.4285 21.0355 38.4285 29.9438C38.4285 29.9438 33.5398 31.7285 26.097 31.7285C25.4275 31.7285 24.7785 31.714 24.1523 31.6874" stroke="#548F6F" stroke-width="1.3" stroke-miterlimit="10" stroke-linecap="round" stroke-linejoin="round"/>
<path d="M32.0693 23.8647C32.4647 25.9731 32.7639 28.4552 32.8067 31.2354" stroke="#548F6F" stroke-width="1.3" stroke-miterlimit="10" stroke-linecap="round" stroke-linejoin="round"/>
<path d="M34.7734 25.0533C35.088 26.7291 35.3417 28.641 35.4537 30.751" stroke="#548F6F" stroke-width="1.3" stroke-miterlimit="10" stroke-linecap="round" stroke-linejoin="round"/>
<path d="M19.3828 11.5908V8.04601" stroke="#548F6F" stroke-width="1.3" stroke-miterlimit="10" stroke-linecap="round" stroke-linejoin="round"/>
<path d="M32.8115 11.5908V8.04601" stroke="#548F6F" stroke-width="1.3" stroke-miterlimit="10" stroke-linecap="round" stroke-linejoin="round"/>
<path d="M32.8118 15.2241C28.369 15.9995 23.8255 15.9995 19.3828 15.2241" stroke="#548F6F" stroke-width="1.3" stroke-miterlimit="10" stroke-linecap="round" stroke-linejoin="round"/>
<path d="M8.57674 23.6371C12.8805 23.5427 17.1834 23.609 21.4871 23.8337C22.7219 23.8977 23.7358 24.8346 23.8919 26.0609C24.2682 29.0019 24.2682 31.9429 23.8919 34.8839C23.7358 36.1103 22.7219 37.0472 21.4871 37.112C15.411 37.4288 9.33465 37.4288 3.2585 37.112C2.02375 37.0472 1.00983 36.1103 0.852992 34.8839C0.477388 31.9429 0.477388 29.0019 0.852992 26.0609C1.00983 24.8346 2.02375 23.8977 3.2585 23.8337C4.27082 23.7811 5.28391 23.7369 6.29623 23.7019" stroke="#548F6F" stroke-width="1.3" stroke-miterlimit="10" stroke-linecap="round" stroke-linejoin="round"/>
<path d="M16.9834 32.3623C18.4847 32.3227 19.9853 32.2633 21.4867 32.1848C22.7214 32.1208 23.736 31.1847 23.8922 29.9583C23.976 29.3086 24.04 28.6588 24.0864 28.0098" stroke="#548F6F" stroke-width="1.3" stroke-miterlimit="10" stroke-linecap="round" stroke-linejoin="round"/>
<path d="M0.658203 28.0107C0.706191 28.6596 0.770252 29.3094 0.853279 29.9591C1.00936 31.1855 2.0232 32.1217 3.25879 32.1856C4.97486 32.2755 6.69178 32.3403 8.40793 32.3799" stroke="#548F6F" stroke-width="1.3" stroke-miterlimit="10" stroke-linecap="round" stroke-linejoin="round"/>
<path d="M15.4488 34.1864C13.6125 34.2868 11.7761 34.2868 9.93985 34.1864C9.13616 34.1424 8.49548 33.5063 8.43081 32.7041C8.34207 31.6029 8.34207 30.5018 8.43081 29.4007C8.49548 28.5985 9.13616 27.9624 9.93985 27.9184C11.7761 27.8179 13.6125 27.8179 15.4488 27.9184C16.2524 27.9624 16.8931 28.5985 16.9578 29.4007C17.0465 30.5018 17.0465 31.6029 16.9578 32.7041C16.8931 33.5063 16.2524 34.1424 15.4488 34.1864Z" stroke="#548F6F" stroke-width="1.3" stroke-miterlimit="10" stroke-linecap="round" stroke-linejoin="round"/>
<path d="M12.6946 32.2314C11.9432 32.2314 11.1827 32.2136 10.4288 32.1784C10.3831 31.4293 10.3831 30.6744 10.4288 29.9255C11.1827 29.8902 11.9432 29.8723 12.6946 29.8723C13.4459 29.8723 14.2064 29.8902 14.9604 29.9255C15.006 30.6745 15.006 31.4294 14.9604 32.1784C14.2064 32.2136 13.4459 32.2314 12.6946 32.2314Z" stroke="#548F6F" stroke-width="1.3" stroke-miterlimit="10" stroke-linecap="round" stroke-linejoin="round"/>
<path d="M21.4869 23.833C20.9734 18.6274 5.31754 16.0182 5.31754 10.6062C5.31754 5.19436 13.5323 6.54771 12.3725 12.2493C11.2126 17.9509 2.64916 19.8578 3.25854 23.833" stroke="#548F6F" stroke-width="1.3" stroke-miterlimit="10" stroke-linecap="round" stroke-linejoin="round"/>
<path d="M21.877 1.74643C22.059 2.60336 23.4857 8.90354 26.0969 9.81836C28.708 8.90354 30.1355 2.60336 30.3176 1.74643" stroke="#548F6F" stroke-width="1.3" stroke-miterlimit="10" stroke-linecap="round" stroke-linejoin="round"/>
</g>
<defs>
<clipPath id="clip0_757_68">
<rect width="39" height="39" fill="white"/>
</clipPath>
</defs>
</svg>
