<svg width="39" height="39" viewBox="0 0 39 39" fill="none" xmlns="http://www.w3.org/2000/svg">
<g clip-path="url(#clip0_757_134)">
<path d="M36.4135 21.0195C35.6432 22.0326 34.6822 22.8927 33.584 23.5465" stroke="#548F6F" stroke-width="1.3" stroke-miterlimit="10" stroke-linecap="round" stroke-linejoin="round"/>
<path d="M20.2988 9.51922C22.0762 6.87141 25.0979 5.12891 28.5265 5.12891C33.9954 5.12891 38.4289 9.56234 38.4289 15.0312C38.4289 16.4371 38.1359 17.7745 37.6077 18.9857" stroke="#548F6F" stroke-width="1.3" stroke-miterlimit="10" stroke-linecap="round" stroke-linejoin="round"/>
<path d="M22.6911 34.4292C20.8763 36.6928 18.0879 38.1422 14.9609 38.1422C9.49203 38.1422 5.05859 33.7088 5.05859 28.2398C5.05859 25.1157 6.50533 22.3295 8.76542 20.5146" stroke="#548F6F" stroke-width="1.3" stroke-miterlimit="10" stroke-linecap="round" stroke-linejoin="round"/>
<path d="M16.6689 18.4844C19.7087 19.0129 22.2728 20.9276 23.686 23.5535" stroke="#548F6F" stroke-width="1.3" stroke-miterlimit="10" stroke-linecap="round" stroke-linejoin="round"/>
<path d="M28.4609 32.1542V26.9354C28.4609 26.4911 28.946 26.2168 29.3268 26.446L33.663 29.0554C34.032 29.2774 34.032 29.8123 33.663 30.0343L29.3268 32.6438C28.946 32.8728 28.4609 32.5986 28.4609 32.1542Z" stroke="#548F6F" stroke-width="1.3" stroke-miterlimit="10" stroke-linecap="round" stroke-linejoin="round"/>
<path d="M32.7158 35.3926H23.8193C23.1883 35.3926 22.6768 34.881 22.6768 34.25V24.6885C22.6768 24.0575 23.1883 23.5459 23.8193 23.5459H37.2861C37.9171 23.5459 38.4286 24.0575 38.4286 24.6885V34.25C38.4286 34.881 37.9171 35.3926 37.2861 35.3926H35.0009" stroke="#548F6F" stroke-width="1.3" stroke-miterlimit="10" stroke-linecap="round" stroke-linejoin="round"/>
<path d="M5.0585 2.46792C6.61469 1.44958 8.47504 0.857422 10.4736 0.857422C15.9425 0.857422 20.376 5.29085 20.376 10.7598C20.376 16.2287 15.9425 20.6621 10.4736 20.6621C5.00472 20.6621 0.571289 16.2287 0.571289 10.7598C0.571289 8.13161 1.59519 5.74255 3.26579 3.96973" stroke="#548F6F" stroke-width="1.3" stroke-miterlimit="10" stroke-linecap="round" stroke-linejoin="round"/>
<path d="M6.55796 12.13C5.61145 12.3096 5.05859 12.8747 5.05859 13.6128C5.05859 14.3507 5.82595 14.9463 6.77246 14.7667C7.71897 14.5871 8.48633 13.817 8.48633 12.3903C8.48633 12.3902 7.50447 11.9504 6.55796 12.13Z" stroke="#548F6F" stroke-width="1.3" stroke-miterlimit="10" stroke-linecap="round" stroke-linejoin="round"/>
<path d="M12.556 13.7374C11.6095 13.9171 11.0566 14.4822 11.0566 15.2202C11.0566 15.9582 11.824 16.5537 12.7705 16.3741C13.717 16.1945 14.4844 15.4244 14.4844 13.9977C14.4844 13.9976 13.5025 13.5578 12.556 13.7374Z" stroke="#548F6F" stroke-width="1.3" stroke-miterlimit="10" stroke-linecap="round" stroke-linejoin="round"/>
<path d="M14.4849 13.9974V7.2907C14.4849 7.03209 14.3112 6.80579 14.0614 6.73891L9.20547 5.43774C8.84266 5.34055 8.48633 5.61393 8.48633 5.98953V12.3901" stroke="#548F6F" stroke-width="1.3" stroke-miterlimit="10" stroke-linecap="round" stroke-linejoin="round"/>
<path d="M14.334 9.09664L8.6377 7.57031" stroke="#548F6F" stroke-width="1.3" stroke-miterlimit="10" stroke-linecap="round" stroke-linejoin="round"/>
<path d="M15.2841 32.8508C18.4327 30.6899 19.8367 28.9573 19.9732 27.1079C20.0957 25.4471 18.8447 23.9701 17.1798 23.9296C16.2971 23.9081 15.502 24.2845 14.9605 24.8919C14.419 24.2845 13.6238 23.908 12.7411 23.9296C11.0762 23.9701 9.82511 25.4471 9.94775 27.1079C10.0843 28.9574 11.4883 30.6899 14.6368 32.8508C14.8314 32.9844 15.0895 32.9844 15.2841 32.8508Z" stroke="#548F6F" stroke-width="1.3" stroke-miterlimit="10" stroke-linecap="round" stroke-linejoin="round"/>
<path d="M25.2441 18.7084H24.4824C23.8514 18.7084 23.3398 18.1968 23.3398 17.5658V13.3047C23.3398 12.6737 23.8514 12.1621 24.4824 12.1621H25.2441C25.8751 12.1621 26.3867 12.6737 26.3867 13.3047V17.5658C26.3867 18.1968 25.8751 18.7084 25.2441 18.7084Z" stroke="#548F6F" stroke-width="1.3" stroke-miterlimit="10" stroke-linecap="round" stroke-linejoin="round"/>
<path d="M32.8613 18.7084H32.0996C31.4686 18.7084 30.957 18.1968 30.957 17.5658V13.3047C30.957 12.6737 31.4686 12.1621 32.0996 12.1621H32.8613C33.4923 12.1621 34.0039 12.6737 34.0039 13.3047V17.5658C34.0039 18.1968 33.4923 18.7084 32.8613 18.7084Z" stroke="#548F6F" stroke-width="1.3" stroke-miterlimit="10" stroke-linecap="round" stroke-linejoin="round"/>
<path d="M26.3867 14.293H30.957" stroke="#548F6F" stroke-width="1.3" stroke-miterlimit="10" stroke-linecap="round" stroke-linejoin="round"/>
<path d="M26.3867 16.5781H30.957" stroke="#548F6F" stroke-width="1.3" stroke-miterlimit="10" stroke-linecap="round" stroke-linejoin="round"/>
</g>
<defs>
<clipPath id="clip0_757_134">
<rect width="39" height="39" fill="white"/>
</clipPath>
</defs>
</svg>
