<svg width="17" height="17" viewBox="0 0 17 17" fill="none" xmlns="http://www.w3.org/2000/svg">
<g clip-path="url(#clip0_1123_156)">
<path d="M16.4969 11.6012C16.8503 11.1504 17.0198 10.6672 16.9982 10.1696C16.9765 9.62144 16.7313 9.19232 16.5294 8.92908C16.7638 8.3449 16.8539 7.42536 16.0714 6.71137C15.4981 6.18849 14.5244 5.9541 13.1758 6.01901C12.2274 6.06228 11.434 6.23898 11.4016 6.24619H11.398C11.2177 6.27864 11.0266 6.31831 10.8318 6.36158C10.8174 6.1308 10.8571 5.55744 11.2826 4.26648C11.7874 2.7303 11.7586 1.55474 11.1888 0.768621C10.5902 -0.0571616 9.63463 -0.12207 9.35336 -0.12207C9.08291 -0.12207 8.8341 -0.0102832 8.6574 0.195261C8.25713 0.66044 8.30401 1.51868 8.35449 1.91534C7.8785 3.19188 6.54426 6.32192 5.41557 7.19097C5.39394 7.2054 5.37591 7.22343 5.35788 7.24146C5.02612 7.59124 4.80255 7.96988 4.65109 8.30163C4.43834 8.18624 4.19673 8.12133 3.9371 8.12133H1.73742C0.908028 8.12133 0.237305 8.79566 0.237305 9.62144V15.4812C0.237305 16.3106 0.911634 16.9814 1.73742 16.9814H3.9371C4.25804 16.9814 4.55734 16.8804 4.80255 16.7073L5.64996 16.8083C5.77978 16.8263 8.08765 17.1184 10.4568 17.0715C10.8859 17.104 11.2898 17.122 11.6648 17.122C12.3103 17.122 12.8729 17.0715 13.3416 16.9705C14.4451 16.7361 15.1987 16.2674 15.581 15.5786C15.8731 15.0521 15.8731 14.5293 15.8262 14.1975C16.5438 13.5484 16.67 12.8308 16.6448 12.326C16.6303 12.0339 16.5654 11.7851 16.4969 11.6012ZM1.73742 16.0077C1.44533 16.0077 1.21093 15.7697 1.21093 15.4812V9.61783C1.21093 9.32574 1.44893 9.09135 1.73742 9.09135H3.9371C4.22919 9.09135 4.46358 9.32935 4.46358 9.61783V15.4776C4.46358 15.7697 4.22558 16.0041 3.9371 16.0041H1.73742V16.0077ZM15.5738 11.1792C15.4223 11.3379 15.3935 11.5795 15.5089 11.767C15.5089 11.7706 15.6567 12.0231 15.6747 12.3692C15.7 12.8416 15.4728 13.2599 14.9968 13.6169C14.8273 13.7467 14.7588 13.9703 14.8309 14.1723C14.8309 14.1759 14.986 14.6519 14.7336 15.1026C14.492 15.5353 13.9547 15.8455 13.1397 16.0185C12.487 16.1592 11.5999 16.1844 10.5109 16.0979C10.4965 16.0979 10.4784 16.0979 10.4604 16.0979C8.14174 16.1484 5.79781 15.8455 5.77257 15.8419H5.76896L5.40475 15.7986C5.42639 15.6976 5.43721 15.5894 5.43721 15.4812V9.61783C5.43721 9.46277 5.41197 9.31132 5.36869 9.17069C5.4336 8.92908 5.6139 8.39178 6.03942 7.93382C7.65853 6.65007 9.24158 2.31922 9.31009 2.1317C9.33894 2.05598 9.34615 1.97304 9.33173 1.8901C9.27043 1.48622 9.29206 0.992195 9.37861 0.844347C9.56973 0.847953 10.0854 0.902044 10.3955 1.33116C10.7633 1.83961 10.7489 2.74833 10.3522 3.95275C9.74642 5.78822 9.69594 6.75464 10.1755 7.18015C10.4135 7.39291 10.7309 7.40373 10.9617 7.32079C11.1816 7.2703 11.3908 7.22703 11.5891 7.19458C11.6035 7.19097 11.6216 7.18737 11.636 7.18376C12.743 6.94215 14.7264 6.79431 15.4151 7.42176C15.9993 7.95545 15.5846 8.66223 15.5377 8.73796C15.4043 8.9399 15.444 9.20314 15.6243 9.36541C15.6279 9.36902 16.0065 9.72601 16.0245 10.2056C16.039 10.5266 15.8875 10.8547 15.5738 11.1792Z" fill="#FF4C60"/>
</g>
<defs>
<clipPath id="clip0_1123_156">
<rect width="17" height="17" fill="white"/>
</clipPath>
</defs>
</svg>
