<svg width="558" height="376" viewBox="0 0 558 376" fill="none" xmlns="http://www.w3.org/2000/svg">
<path opacity="0.1" d="M37.5861 375.999C37.5861 376.01 37.4587 375.935 37.2251 375.787C36.9809 375.628 36.6411 375.394 36.1845 375.097C35.728 374.79 35.1546 374.397 34.4857 373.941C33.8168 373.474 33.0098 372.965 32.1817 372.275C31.3323 371.607 30.3873 370.864 29.3467 370.036C28.3168 369.198 27.2763 368.19 26.0977 367.14C23.7831 365.007 21.2879 362.355 18.6972 359.193C13.5688 352.838 8.3343 344.106 4.71366 333.03C1.16735 321.974 -0.796931 308.627 0.307311 294.018C0.870049 286.729 2.04862 279.111 4.26772 271.43C6.45496 263.748 9.55534 255.939 14.0785 248.576C15.1933 246.73 16.4462 244.948 17.7522 243.176C19.1325 241.468 20.5128 239.749 21.9143 238.02C23.3902 236.354 24.9298 234.731 26.4587 233.054C28.0195 231.42 29.7077 229.893 31.3429 228.28C38.0745 222.052 45.6555 216.365 53.7781 211.124C70.0444 200.61 88.4237 191.91 107.344 182.849C126.212 173.619 146.088 164.76 166.474 155.805C248.114 120.071 322.841 89.6427 377.268 68.5082C404.47 57.8985 426.661 49.8032 442.025 44.2544C449.712 41.5171 455.722 39.48 459.778 38.0795C461.806 37.3899 463.356 36.8594 464.407 36.5093C464.928 36.3395 465.32 36.2122 465.596 36.1167C465.862 36.0318 466 36 466 36C466 36.0106 465.873 36.0637 465.618 36.1698C465.352 36.2759 464.959 36.4138 464.45 36.6154C463.409 36.9973 461.87 37.5596 459.852 38.2917C455.807 39.7558 449.84 41.899 442.174 44.6681C426.863 50.3337 404.715 58.535 377.554 69.2402C323.213 90.5552 248.549 121.101 166.92 156.823C146.534 165.778 126.679 174.616 107.812 183.836C88.8802 192.886 70.5222 201.543 54.3302 211.983C46.2395 217.193 38.7009 222.827 32.0012 229.001C30.3767 230.593 28.6884 232.11 27.1383 233.723C25.6199 235.378 24.091 236.99 22.6257 238.635C21.2348 240.354 19.8545 242.051 18.4954 243.738C17.2107 245.478 15.9684 247.229 14.8642 249.054C10.3835 256.311 7.29376 264.045 5.0959 271.652C2.86618 279.27 1.677 286.835 1.09302 294.071C-0.0536914 308.574 1.83626 321.836 5.30825 332.839C8.84395 343.852 13.9935 352.562 19.0369 358.917C21.5852 362.09 24.0485 364.753 26.3207 366.896C27.478 367.946 28.5079 368.975 29.5272 369.814C30.5572 370.652 31.4809 371.405 32.3197 372.084C33.1373 372.784 33.923 373.315 34.5813 373.782C35.2396 374.259 35.8023 374.652 36.2483 374.98C36.6836 375.299 37.0233 375.543 37.2569 375.713C37.4799 375.904 37.5861 375.988 37.5861 375.999Z" fill="#263238"/>
<path d="M449.08 2.7L467.6 18.05L465.89 35.63L481.06 27.2L497.21 38.68L557.44 0L449.08 2.7Z" fill="#FF4C60"/>
<g opacity="0.5">
<path d="M467.6 18.05L555.81 0.0400391L476.58 24.02L465.89 35.63L467.6 18.05Z" fill="#101010"/>
</g>
<g opacity="0.8">
<path d="M476.58 24.0195L481.06 27.1995L465.89 35.6295L476.58 24.0195Z" fill="#101010"/>
</g>
</svg>
