<svg width="16" height="11" viewBox="0 0 16 11" fill="none" xmlns="http://www.w3.org/2000/svg">
<g opacity="0.1">
<path d="M2.77208 10.6896C1.42436 9.39216 0.478799 7.59639 0.12268 5.66692C-0.00318967 4.9711 -0.0400295 3.73138 0.0490002 3.13887C0.1411 2.52205 0.374419 1.92346 0.709048 1.44337C1.54102 0.249226 3.0668 -0.273401 4.50663 0.139839C5.0715 0.300881 5.52893 0.574349 5.97408 1.01494C6.40695 1.44337 6.6372 1.80799 6.81833 2.34277C7.11612 3.22091 7.05165 4.17501 6.64334 4.99237C6.14907 5.98597 5.16053 6.71218 4.09832 6.86714C3.65624 6.93095 3.70229 6.89145 3.72378 7.19834C3.76983 7.83643 4.01236 8.48364 4.47286 9.21593C4.74302 9.63828 4.76758 9.57751 3.9878 10.3493C3.16504 11.1606 3.24179 11.1393 2.77208 10.6896ZM3.93254 9.34962C3.63168 8.86042 3.37687 8.24056 3.26942 7.71489C3.20188 7.39585 3.1896 6.77903 3.24793 6.61494C3.30626 6.45998 3.37994 6.42048 3.68387 6.39921C4.79828 6.31109 5.75304 5.66085 6.21661 4.67029C6.4223 4.23274 6.46221 4.02612 6.45914 3.4488C6.45914 2.97479 6.44993 2.90794 6.37318 2.65878C6.06311 1.64999 5.2557 0.875163 4.23647 0.604734C3.87114 0.507501 3.13741 0.504463 2.78743 0.601696C1.57479 0.932895 0.745888 1.92649 0.552479 3.27864C0.506429 3.61288 0.512569 4.66421 0.567829 5.0896C0.650718 5.75504 0.788868 6.34148 0.997627 6.92791C1.42743 8.13421 2.15808 9.31012 3.0668 10.249L3.20802 10.3918L3.63168 9.97252L4.05841 9.55016L3.93254 9.34962Z" fill="#101010"/>
<path d="M11.3757 10.5655C9.89289 9.07054 8.96883 7.08334 8.74779 4.91383C8.6956 4.39121 8.72937 3.29126 8.80612 2.91752C9.1653 1.21291 10.4363 0.079534 12.0695 0.00964784C13.055 -0.0328916 13.9238 0.283115 14.6268 0.942476C15.1856 1.46814 15.5355 2.10016 15.6737 2.84156C15.7443 3.20922 15.7228 3.95366 15.6338 4.2879C15.2838 5.58839 14.3075 6.53641 13.0028 6.83722C12.8585 6.87065 12.6897 6.89799 12.6252 6.89799C12.4348 6.89799 12.4226 6.91926 12.4471 7.21704C12.4993 7.83994 12.7296 8.45676 13.1931 9.21335C13.3589 9.48074 13.3896 9.55063 13.3743 9.62355C13.3589 9.68432 13.1624 9.9031 12.7326 10.3285C12.3888 10.6658 12.0879 10.9575 12.0634 10.9727C12.0388 10.9879 11.9713 11 11.9129 11C11.8147 11 11.7687 10.9605 11.3757 10.5655ZM12.573 9.20728C12.1125 8.40814 11.8608 7.46924 11.9406 6.84026C11.9897 6.44829 12.0112 6.43006 12.4072 6.39967C13.6874 6.2994 14.7158 5.48204 15.0965 4.26359C15.1733 4.01747 15.1794 3.9567 15.1794 3.46446C15.1794 2.97221 15.1733 2.91144 15.0965 2.66532C14.8233 1.79326 14.283 1.16733 13.4694 0.79055C13.0366 0.590007 12.7664 0.532275 12.2353 0.532275C11.8515 0.532275 11.7318 0.544429 11.5138 0.602161C10.4608 0.881706 9.64729 1.72946 9.36792 2.83244C9.26968 3.2153 9.24512 3.48573 9.24205 4.10255C9.24205 5.43646 9.51221 6.61845 10.0986 7.82474C10.5284 8.70896 10.9827 9.36528 11.7165 10.1614L11.9283 10.3893L12.352 9.97298L12.7725 9.55671L12.573 9.20728Z" fill="#101010"/>
</g>
</svg>
