<svg width="28" height="29" viewBox="0 0 28 29" fill="none" xmlns="http://www.w3.org/2000/svg">
<path d="M27.5887 13.2887C27.5633 13.1674 27.477 13.0562 27.3147 13.0411C25.6807 12.9096 24.0417 12.667 22.4737 12.1616C21.2508 11.7723 19.9771 11.4893 19.6879 10.0234C19.4545 8.84568 20.1801 8.14308 20.8246 7.28883C20.8398 7.26861 20.8449 7.24334 20.8398 7.22312C20.9565 7.10686 20.7941 6.88951 20.652 6.98555C19.3073 7.86001 17.917 8.85579 16.42 7.59211C15.4356 6.76315 15.2783 5.641 14.9738 4.48853C14.6034 3.10355 14.4816 1.68824 14.2888 0.277978C14.2837 0.242595 14.2634 0.217321 14.2381 0.197102C14.2381 -0.0303587 13.8727 -0.0809054 13.827 0.15161C13.4566 1.89548 13.1521 3.65957 12.6447 5.36805C12.2083 6.82886 11.7466 8.68898 9.85382 8.63338C8.34166 8.59294 7.82408 7.6831 6.77876 6.85918C6.4946 6.63678 6.11402 6.99061 6.37281 7.26356C7.0883 8.01671 7.75304 8.64854 7.83423 9.75047C7.90527 10.721 7.33694 11.6611 6.55549 12.2424C5.64718 12.9198 4.15025 13.4404 2.99837 13.314C2.13065 13.218 1.24772 13.2129 0.374928 13.314C-0.11221 13.3696 -0.137581 14.0722 0.374928 14.0874C1.28324 14.1127 2.20169 14.1379 3.11 14.1127C3.86608 14.0924 5.02303 14.2188 5.69792 14.5878C5.86538 14.6788 6.02268 14.8001 6.16984 14.9265C6.75339 15.4016 7.32679 15.9273 7.65662 16.6046C8.69687 18.7529 6.92084 20.2187 5.6624 21.6896C5.43406 21.9575 5.81463 22.3468 6.05313 22.0789C6.74831 21.3055 7.45365 20.2794 8.46345 19.9357C9.50876 19.5818 10.7368 19.7284 11.6349 20.3855C11.7973 20.5068 11.9495 20.6383 12.0662 20.8051C12.1931 20.982 12.2692 21.1842 12.3504 21.3864C12.6447 22.1547 12.9035 22.9129 13.0608 23.7216C13.3754 25.3442 13.4871 26.9971 13.619 28.6398C13.6545 29.115 14.4004 29.1251 14.37 28.6398C14.2837 27.0223 14.3852 25.3947 14.715 23.8076C15.0652 22.1294 15.1514 20.1176 17.2776 19.8245C18.6527 19.6324 19.6372 20.4512 20.6368 21.2448C20.855 21.4167 21.1138 21.164 20.9514 20.9466C21.0022 20.8708 21.0123 20.7646 20.9362 20.6737C20.0533 19.6374 19.1348 18.5962 19.49 17.1404C19.8757 15.5482 21.3777 15.0832 22.7934 14.6889C24.3512 14.2491 25.97 14.0571 27.5735 13.8751C27.954 13.8347 27.9591 13.3393 27.5887 13.2887Z" fill="#2C2C2C"/>
</svg>
