<svg width="47" height="50" viewBox="0 0 47 50" fill="none" xmlns="http://www.w3.org/2000/svg">
<path d="M23.4995 0C22.2852 0 22.2852 2.82847 22.2852 2.82847V5.65695C22.2852 5.65695 22.2852 8.48542 23.4995 8.48542C24.7138 8.48542 24.7138 5.65695 24.7138 5.65695V2.82847C24.7138 2.82847 24.7138 0 23.4995 0Z" fill="#D99374"/>
<path d="M8.99665 4.77374C8.0146 5.49634 9.65679 7.78389 9.65679 7.78389L11.299 10.0714C11.299 10.0714 12.9412 12.359 13.9191 11.6364C14.9012 10.9138 13.259 8.62624 13.259 8.62624L11.6168 6.33869C11.6209 6.34282 9.97871 4.05113 8.99665 4.77374Z" fill="#D99374"/>
<path d="M0.0362454 17.276C-0.338646 18.4446 2.31819 19.32 2.31819 19.32L4.97096 20.1953C4.97096 20.1953 7.6278 21.0707 7.99862 19.9022C8.37351 18.7336 5.72074 17.8582 5.72074 17.8582L3.0639 16.9829C3.0639 16.9787 0.411137 16.1033 0.0362454 17.276Z" fill="#D99374"/>
<path d="M0.036295 32.7273C0.411187 33.8959 3.06395 33.0205 3.06395 33.0205L5.72079 32.1451C5.72079 32.1451 8.37356 31.2697 7.99867 30.1012C7.62378 28.9326 4.97101 29.808 4.97101 29.808L2.31824 30.6834C2.31417 30.6834 -0.338597 31.5546 0.036295 32.7273Z" fill="#D99374"/>
<path d="M8.99694 45.2264C9.97899 45.949 11.6171 43.6615 11.6171 43.6615L13.2593 41.3739C13.2593 41.3739 14.9015 39.0864 13.9194 38.3638C12.9374 37.6412 11.2993 39.9287 11.2993 39.9287L9.65707 42.2163C9.65707 42.2163 8.01896 44.5038 8.99694 45.2264Z" fill="#D99374"/>
<path d="M23.4995 50.0001C24.7138 50.0001 24.7138 47.1716 24.7138 47.1716V44.3431C24.7138 44.3431 24.7138 41.5146 23.4995 41.5146C22.2852 41.5146 22.2852 44.3431 22.2852 44.3431V47.1716C22.2852 47.1716 22.2852 50.0001 23.4995 50.0001Z" fill="#D99374"/>
<path d="M38.0013 45.2264C38.9834 44.5038 37.3412 42.2163 37.3412 42.2163L35.699 39.9287C35.699 39.9287 34.0568 37.6412 33.0748 38.3638C32.0927 39.0864 33.7349 41.3739 33.7349 41.3739L35.3771 43.6615C35.3771 43.6615 37.0193 45.949 38.0013 45.2264Z" fill="#D99374"/>
<path d="M46.9635 32.7283C47.3384 31.5597 44.6815 30.6844 44.6815 30.6844L42.0287 29.809C42.0287 29.809 39.376 28.9336 39.0011 30.1022C38.6262 31.2707 41.283 32.1461 41.283 32.1461L43.9358 33.0215C43.9358 33.0215 46.5886 33.8968 46.9635 32.7283Z" fill="#D99374"/>
<path d="M46.9635 17.276C46.5886 16.1074 43.9358 16.9828 43.9358 16.9828L41.283 17.8582C41.283 17.8582 38.6262 18.7336 39.0011 19.9021C39.376 21.0707 42.0287 20.1953 42.0287 20.1953L44.6815 19.3199C44.6856 19.3158 47.3384 18.4445 46.9635 17.276Z" fill="#D99374"/>
<path d="M38.0012 4.77296C37.0191 4.05035 35.381 6.33791 35.381 6.33791L33.7388 8.62959C33.7388 8.62959 32.0966 10.9171 33.0787 11.6398C34.0607 12.3624 35.7029 10.0748 35.7029 10.0748L37.3451 7.78724C37.341 7.78724 38.9832 5.49556 38.0012 4.77296Z" fill="#D99374"/>
<path d="M23.3824 29.9979L16.6181 34.4656C16.451 34.5771 16.2391 34.4202 16.2921 34.2303L18.4966 26.4798C18.5211 26.3973 18.4925 26.3106 18.4233 26.2569L12.0379 21.273C11.883 21.1491 11.9645 20.9014 12.1642 20.8931L20.2937 20.5751C20.3792 20.571 20.4567 20.5173 20.4852 20.4348L23.305 12.8825C23.3743 12.6967 23.6392 12.6967 23.7084 12.8825L26.5283 20.4348C26.5568 20.5132 26.6342 20.571 26.7198 20.5751L34.8411 20.8931C35.0407 20.9014 35.1222 21.1491 34.9674 21.273L28.582 26.261C28.5127 26.3147 28.4842 26.4014 28.5087 26.484L30.7132 34.2344C30.7662 34.4244 30.5543 34.5771 30.3872 34.4698L23.6229 30.002C23.5495 29.9525 23.4558 29.9525 23.3824 29.9979Z" fill="#D99374"/>
</svg>
