<svg width="49" height="15" viewBox="0 0 49 15"  xmlns="http://www.w3.org/2000/svg">
<path d="M3.77495 6.82398C4.26138 6.66693 4.71574 6.44532 5.20243 6.2887C6.01323 5.97344 6.88783 5.78801 7.66576 5.56953C9.3178 5.16587 11.0335 4.89153 12.8124 4.74792C16.2085 4.45814 19.6317 4.71823 22.9862 5.33318C29.1794 6.49318 34.9719 8.97357 40.5663 11.8729C37.8833 11.9758 35.1981 12.2401 32.5433 12.7308C31.2808 12.9445 30.267 14.1624 29.1012 14.4097C33.7313 13.518 38.4512 13.306 43.1336 13.6754C43.4566 13.6788 44.0744 13.2967 44.5293 13.0749C44.7841 13.4329 45.1359 13.8243 45.3908 14.1823C45.5822 14.4103 48.673 12.3403 48.8329 12.5035C46.3114 9.31148 43.7896 6.11963 41.2366 2.86288C40.63 2.11347 40.0565 1.26768 39.3853 0.550353C39.0334 0.158933 38.9702 0.0293689 38.6136 0.122558L38.6784 0.0909618L38.4836 0.185972L38.4188 0.217568C38.0624 0.311211 36.0505 1.13153 35.3664 1.70633L35.2364 1.76974L35.3012 1.73815C35.235 1.93136 35.2018 2.02773 35.2336 2.09297C35.202 2.02819 35.3968 1.93318 35.5916 1.83817C36.2347 2.16776 37.1566 3.72791 37.5082 4.11888C38.3697 5.22634 39.2315 6.33347 40.1246 7.50564C40.4764 7.89706 40.7628 8.31984 41.1147 8.7113C35.3254 5.90749 29.1751 3.68113 22.6855 3.06809C18.7146 2.67368 14.5756 2.9236 10.7204 3.91958C7.22109 4.82211 3.90902 6.43752 0.821613 8.18449C1.4708 7.86786 2.73638 7.33078 3.77561 6.82392L3.77495 6.82398Z" fill="url(#paint0_linear_1351_58)"/>
<defs>
<linearGradient id="paint0_linear_1351_58" x1="43.3613" y1="1.28513" x2="6.27804" y2="19.3718" gradientUnits="userSpaceOnUse">
<stop stop-color="#917090"/>
<stop offset="1" stop-color="#DE8B76"/>
</linearGradient>
</defs>
</svg>
