<svg width="17" height="17" viewBox="0 0 17 17" fill="none" xmlns="http://www.w3.org/2000/svg">
<g clip-path="url(#clip0_1123_100)">
<path d="M13.4598 13.3374C13.3436 13.2638 13.1898 13.2981 13.1161 13.4144C12.4942 14.3945 11.431 14.9797 10.2718 14.9797H3.86375C2.00788 14.9797 0.498047 13.4697 0.498047 11.6139V5.64587C0.498047 5.50838 0.386505 5.39684 0.249023 5.39684C0.111542 5.39684 0 5.50838 0 5.64587V11.6139C0 13.7444 1.73331 15.4778 3.86375 15.4778H10.2718C11.6024 15.4778 12.823 14.806 13.5366 13.6812C13.6103 13.5651 13.5759 13.4111 13.4598 13.3374ZM11.2705 6.71991L9.37184 8.61871C9.27457 8.71599 9.27457 8.8737 9.37184 8.97085C9.42035 9.01949 9.48416 9.04387 9.54784 9.04387C9.61153 9.04387 9.67534 9.01949 9.72398 8.97085L11.6227 7.07217C11.7199 6.9749 11.7199 6.81718 11.6227 6.71991C11.5255 6.62276 11.3678 6.62276 11.2705 6.71991ZM16.6397 2.57095L15.7717 1.703C15.2913 1.22246 14.5095 1.22246 14.0291 1.703L13.1281 2.60402C12.396 1.79884 11.3701 1.34204 10.2718 1.34204H3.86375C2.97492 1.34204 2.1071 1.65137 1.42008 2.21297C0.74279 2.76653 0.268997 3.53993 0.0862503 4.3905C0.0573273 4.525 0.142929 4.65742 0.277428 4.68635C0.295067 4.68998 0.312706 4.69193 0.329956 4.69193C0.44487 4.69193 0.548111 4.61203 0.573143 4.49517C0.732414 3.75459 1.14499 3.08105 1.73525 2.59857C2.33356 2.10947 3.08945 1.84009 3.86375 1.84009H10.2718C11.2363 1.84009 12.1368 2.24449 12.7754 2.95667L10.1272 5.60488H3.18296C3.04535 5.60488 2.93381 5.71629 2.93381 5.8539C2.93381 5.99139 3.04535 6.10293 3.18296 6.10293H9.62917L8.43515 7.29681H3.18296C3.04535 7.29681 2.93381 7.40836 2.93381 7.54597C2.93381 7.68345 3.04535 7.79499 3.18296 7.79499H7.9371L6.39238 9.33971C5.94479 9.78731 5.57851 10.3035 5.30394 10.8739L4.59513 12.3464C4.39902 12.7541 4.47892 13.2241 4.79876 13.5439C5.00213 13.7473 5.26633 13.8537 5.53662 13.8537C5.69122 13.8537 5.8479 13.8188 5.99615 13.7474L6.71053 13.4036C6.71066 13.4035 6.71092 13.4035 6.71105 13.4033L7.46876 13.0387C8.03905 12.7642 8.55525 12.3979 9.00298 11.9503L13.6377 7.31562V11.6139C13.6377 11.8866 13.605 12.1578 13.5405 12.4201C13.5077 12.5537 13.5894 12.6884 13.723 12.7212C13.743 12.7262 13.763 12.7285 13.7825 12.7285C13.8946 12.7285 13.9963 12.6525 14.0242 12.5389C14.0982 12.2379 14.1357 11.9266 14.1357 11.6139V6.81757L14.8279 6.12537C14.828 6.12524 14.828 6.12524 14.828 6.12511C14.8282 6.12511 14.8282 6.12511 14.8282 6.12498L16.6397 4.31359C17.1201 3.83305 17.1201 3.05135 16.6397 2.57095ZM5.7802 13.2987C5.52028 13.4238 5.28474 13.3255 5.15089 13.1918C5.01717 13.0579 4.91886 12.8224 5.04402 12.5625L5.25414 12.1258C5.42949 12.266 5.59966 12.418 5.76217 12.5805C5.92468 12.743 6.07669 12.9132 6.2169 13.0886L5.7802 13.2987ZM7.25268 12.59L6.67642 12.8673C6.50561 12.6458 6.31741 12.4314 6.1143 12.2284C5.91119 12.0253 5.6968 11.837 5.4754 11.6663L5.7527 11.09C5.94414 10.6925 6.18434 10.324 6.46929 9.99016L8.35253 11.8734C8.01868 12.1582 7.65021 12.3986 7.25268 12.59ZM8.71621 11.5327L6.81001 9.62648L12.3936 4.04278L14.2998 5.94897L8.71621 11.5327ZM14.652 5.59684L12.7458 3.69064L13.3606 3.07587L15.267 4.98206L14.652 5.59684ZM16.2876 3.96133L15.6191 4.6298L13.7129 2.7236L14.3812 2.05513C14.5244 1.91194 14.7124 1.84048 14.9004 1.84048C15.0884 1.84048 15.2764 1.91194 15.4195 2.05513L16.2874 2.92308C16.5737 3.20933 16.5737 3.67508 16.2876 3.96133ZM3.18296 4.41087H10.9528C11.0902 4.41087 11.2018 4.29945 11.2018 4.16184C11.2018 4.02423 11.0902 3.91282 10.9528 3.91282H3.18296C3.04535 3.91282 2.93381 4.02423 2.93381 4.16184C2.93381 4.29945 3.04535 4.41087 3.18296 4.41087Z" fill="#FF4C60"/>
</g>
<defs>
<clipPath id="clip0_1123_100">
<rect width="17" height="17" fill="white"/>
</clipPath>
</defs>
</svg>
