<svg width="39" height="39" viewBox="0 0 39 39" fill="none" xmlns="http://www.w3.org/2000/svg">
<g clip-path="url(#clip0_757_44)">
<path d="M2.91705 35.1523H5.88806C6.22473 35.1523 6.49255 35.4202 6.49255 35.7568V36.9058C6.49255 38.0545 5.55138 38.9957 4.4024 38.9957C3.25373 38.9957 2.30371 38.0542 2.30371 36.9058V35.7568C2.30371 35.4202 2.58006 35.1523 2.91705 35.1523ZM5.27472 36.3702H3.52155V36.9058C3.52155 37.3894 3.91886 37.7778 4.4024 37.7778C4.88594 37.7778 5.27472 37.3894 5.27472 36.9058V36.3702Z" fill="#548F6F"/>
<path d="M12.2969 35.1523H15.2679C15.6046 35.1523 15.8724 35.4202 15.8724 35.7568V36.9058C15.8724 38.0545 14.931 38.9957 13.7823 38.9957C12.6333 38.9957 11.6836 38.0542 11.6836 36.9058V35.7568C11.6839 35.4202 11.9599 35.1523 12.2969 35.1523ZM14.6549 36.3702H12.9017V36.9058C12.9017 37.3894 13.299 37.7778 13.7829 37.7778C14.2667 37.7778 14.6552 37.3894 14.6552 36.9058V36.3702H14.6549Z" fill="#548F6F"/>
<path d="M22.1602 26.0059H35.4266C36.6268 26.0059 37.6119 26.9903 37.6119 28.1996V32.535C37.6119 32.8717 37.344 33.1483 37.0074 33.1483H20.5798C20.2431 33.1483 19.9668 32.872 19.9668 32.535V28.1996C19.9668 26.9903 20.9601 26.0059 22.1602 26.0059ZM35.4266 27.2237H22.1602C21.6246 27.2237 21.1932 27.664 21.1932 28.1996V31.9305H36.3937V28.1996C36.3937 27.664 35.9623 27.2237 35.4266 27.2237Z" fill="#548F6F"/>
<path d="M20.4493 31.9307H37.1358C38.1635 31.9307 39.0014 32.7686 39.0014 33.7877V35.8776C39.0014 36.2146 38.7254 36.4909 38.3884 36.4909H19.1973C18.8606 36.4909 18.584 36.2149 18.584 35.8776V33.7877C18.584 32.7686 19.4219 31.9307 20.4493 31.9307ZM37.1358 33.1485H20.4493C20.0952 33.1485 19.8018 33.4337 19.8018 33.7877V35.2734H37.7839V33.7877C37.7839 33.4422 37.4898 33.1485 37.1358 33.1485Z" fill="#548F6F"/>
<path d="M21.4688 35.2734H25.4504C25.7871 35.2734 26.0634 35.541 26.0634 35.8776C26.0634 36.0504 25.9943 36.2058 25.8819 36.3182L23.7402 38.788C23.6195 38.9263 23.455 38.9955 23.2826 38.9955H21.4688C21.1321 38.9955 20.8643 38.7191 20.8643 38.391V35.8776C20.8643 35.5406 21.1318 35.2734 21.4688 35.2734ZM24.1205 36.491H22.0824V37.778H23.0059L24.1205 36.491Z" fill="#548F6F"/>
<path d="M35.5035 36.491H33.4655L34.5794 37.778H35.5035V36.491ZM32.1355 35.2734H36.1171C36.4538 35.2734 36.7216 35.541 36.7216 35.8776V38.391C36.7216 38.7191 36.4538 38.9955 36.1171 38.9955H34.3033C34.1309 38.9955 33.9667 38.9263 33.8457 38.788L31.7034 36.3182C31.5916 36.2058 31.5225 36.0504 31.5225 35.8776C31.5225 35.5406 31.7985 35.2734 32.1355 35.2734Z" fill="#548F6F"/>
<path d="M23.7405 29.6426H26.9016C27.5841 29.6426 28.1365 30.1953 28.1365 30.8778V32.5359C28.1365 32.8726 27.8604 33.1492 27.5235 33.1492H23.1104C22.7737 33.1492 22.5059 32.8729 22.5059 32.5359V30.8778C22.5056 30.2041 23.0586 29.6426 23.7405 29.6426ZM26.9016 30.8604H23.7405C23.7322 30.8604 23.7231 30.8689 23.7231 30.8778V31.9314H26.919V30.8778C26.919 30.8692 26.9098 30.8604 26.9016 30.8604Z" fill="#548F6F"/>
<path d="M30.6844 29.6426H33.8456C34.5192 29.6426 35.0805 30.2041 35.0805 30.8778V32.5359C35.0805 32.8726 34.8044 33.1492 34.4674 33.1492H30.0537C29.717 33.1492 29.4492 32.8729 29.4492 32.5359V30.8778C29.4492 30.5411 29.5879 30.23 29.8121 30.0055C30.0364 29.7809 30.3386 29.6426 30.6844 29.6426ZM33.8456 30.8604H30.6844C30.6756 30.8604 30.6671 30.8689 30.6671 30.8778V31.9314H33.8626V30.8778C33.8629 30.8692 33.8538 30.8604 33.8456 30.8604Z" fill="#548F6F"/>
<path d="M28.3875 16.8255L29.286 19.9431C29.3461 20.1418 29.3034 20.3316 29.1907 20.4787L27.8171 22.2663C27.5755 22.5945 27.0917 22.586 26.8501 22.2663L25.0969 20.0988C24.9153 19.8742 24.9238 19.5461 25.1051 19.3301L27.3248 16.5922C27.5319 16.3246 27.9122 16.2899 28.18 16.4971C28.2839 16.5836 28.3619 16.7046 28.3875 16.8255ZM28.0335 19.9864L27.5414 18.2594L26.3583 19.7189L27.3254 20.9193L28.0335 19.9864Z" fill="#548F6F"/>
<path d="M24.1384 16.0567L22.359 16.3072L21.7978 17.3349L23.2914 17.7322L24.1384 16.0567ZM21.884 15.1411L25.097 14.7009C25.5802 14.5973 25.9866 15.1152 25.7533 15.5732L24.1555 18.7258L24.1466 18.7173C24.026 18.9677 23.7326 19.1057 23.4556 19.0369L20.761 18.32C20.7092 18.3114 20.6574 18.2855 20.6141 18.2596C20.3118 18.1042 20.2082 17.7328 20.3636 17.4391L21.4349 15.4611C21.5211 15.2965 21.6854 15.1759 21.884 15.1411Z" fill="#548F6F"/>
<path d="M33.1457 1.02017C34.4068 0.139017 35.78 -0.344522 36.7733 0.303244C37.7403 0.925111 37.8528 2.37603 37.5767 3.88759C37.3951 4.8376 36.7733 6.8327 36.1688 7.58406L25.8475 20.3489C25.5885 20.6686 25.1912 20.8502 24.7853 20.8672C24.3883 20.8931 23.9648 20.7636 23.6367 20.5561C23.3082 20.3401 23.023 20.0034 22.8768 19.632C22.7299 19.2435 22.7387 18.8289 22.9286 18.4574L30.3648 3.82696C30.805 2.972 32.3596 1.56404 33.1457 1.02017ZM33.8455 2.01315C32.8522 2.70418 31.9193 3.6801 31.4443 4.39703L24.0081 19.0019C23.9301 19.192 24.1635 19.4425 24.3015 19.5376C24.4401 19.6238 24.7509 19.7277 24.8978 19.5894L35.2011 6.84153C35.6593 6.1246 36.1596 4.86381 36.3848 3.66303C36.5828 2.59206 36.5746 1.61614 36.117 1.32242C35.6249 1.00281 34.7264 1.39128 33.8455 2.01315Z" fill="#548F6F"/>
<path d="M19.4133 5.70979L29.3543 6.60801C29.6822 6.6339 29.9326 6.93646 29.8982 7.26461C29.89 7.3423 29.8726 7.42 29.8382 7.48916L27.6703 11.6606C27.5317 11.937 27.2038 12.058 26.9187 11.9544L17.3579 8.35265C17.0468 8.23199 16.8829 7.87764 17.0038 7.56655C17.0471 7.45443 17.1159 7.35936 17.211 7.2902L18.973 5.83928C19.094 5.73568 19.2582 5.69242 19.4133 5.70979ZM28.344 7.73078L19.5516 6.93615L18.7655 7.58392L26.8407 10.6241L28.344 7.73078Z" fill="#548F6F"/>
<path d="M37.7409 18.7338L33.4229 11.0298L31.4013 13.5776L37.4646 19.7097L37.7409 18.7338ZM34.0448 9.64803L38.9155 18.3627C38.9935 18.4922 39.0191 18.6564 38.9761 18.8203L38.3625 21.0312C38.3369 21.135 38.2851 21.2298 38.2071 21.3163C37.9655 21.5497 37.577 21.5497 37.3436 21.3078L30.1755 14.07C29.9421 13.8539 29.9159 13.4914 30.1149 13.2409L33.0256 9.58739C33.0774 9.51823 33.138 9.4579 33.2154 9.41464C33.5094 9.25071 33.8805 9.35431 34.0448 9.64803Z" fill="#548F6F"/>
<path d="M4.24722 11.6084H13.9378C15.1038 11.6084 16.166 12.0834 16.9347 12.8521C17.7034 13.6209 18.1784 14.6833 18.1784 15.849V33.4508C18.1784 34.254 17.8588 34.9798 17.3235 35.5148C16.7967 36.0416 16.0712 36.37 15.2678 36.37H2.91726C2.1141 36.37 1.38011 36.0419 0.853 35.5148C0.326195 34.9795 -0.00195312 34.2537 -0.00195312 33.4508V15.849C-0.00195312 14.683 0.473055 13.6209 1.24178 12.8521C2.01051 12.0834 3.07265 11.6084 4.24722 11.6084ZM13.9378 12.8262H4.24722C3.40933 12.8262 2.65827 13.1629 2.10527 13.7159C1.56109 14.2601 1.21588 15.02 1.21588 15.849V33.4508C1.21588 33.917 1.40601 34.3405 1.71679 34.6513C2.02788 34.9536 2.45078 35.1522 2.91726 35.1522H15.2678C15.7342 35.1522 16.1572 34.9539 16.4682 34.6513C16.7705 34.3402 16.9606 33.917 16.9606 33.4508V15.849C16.9606 15.02 16.6239 14.2598 16.0712 13.7159C15.5268 13.1632 14.7669 12.8262 13.9378 12.8262Z" fill="#548F6F"/>
<path d="M5.07623 6.56445H13.1084C13.4451 6.56445 13.7129 6.83227 13.7129 7.16895V12.2127C13.7129 12.5494 13.4451 12.8261 13.1084 12.8261H5.07623C4.73955 12.8261 4.46289 12.5497 4.46289 12.2127V7.16895C4.46289 6.83227 4.73924 6.56445 5.07623 6.56445ZM12.4951 7.78229H5.68926V11.6082H12.4951V7.78229Z" fill="#548F6F"/>
<path d="M1.59631 13.9403C1.25963 13.923 1.00887 13.6293 1.02624 13.3011C1.04361 12.9644 1.32849 12.7051 1.66548 12.7225C4.67975 12.8953 5.26719 15.7282 5.23276 18.2328L5.24129 35.7566C5.24129 36.0933 4.96494 36.3611 4.63679 36.3611C4.30011 36.3611 4.02345 36.0933 4.02345 35.7566L4.01462 18.2416C4.01462 16.497 3.87629 14.0698 1.59631 13.9403Z" fill="#548F6F"/>
<path d="M16.5293 12.7225C16.866 12.7051 17.1512 12.9644 17.1685 13.3011C17.1859 13.6293 16.9266 13.923 16.5985 13.9403C14.3185 14.0698 14.1716 16.497 14.1716 18.2416L14.1631 35.7569C14.1631 36.0936 13.8953 36.3614 13.5586 36.3614C13.2219 36.3614 12.9541 36.0936 12.9541 35.7569L12.9626 18.2331C12.9276 15.7282 13.5065 12.8953 16.5293 12.7225Z" fill="#548F6F"/>
<path d="M4.62794 28.4678C4.29126 28.4678 4.02344 28.1915 4.02344 27.8545C4.02344 27.5175 4.29126 27.25 4.62794 27.25H13.5583C13.895 27.25 14.1717 27.5178 14.1717 27.8545C14.1717 28.1912 13.8953 28.4678 13.5583 28.4678H4.62794Z" fill="#548F6F"/>
<path d="M4.62794 19.2091C4.29126 19.2091 4.02344 18.9327 4.02344 18.5958C4.02344 18.2588 4.29126 17.9824 4.62794 17.9824H13.5583C13.895 17.9824 14.1717 18.2588 14.1717 18.5958C14.1717 18.9327 13.8953 19.2091 13.5583 19.2091H4.62794Z" fill="#548F6F"/>
<path d="M4.73932 6.56437H13.4363V5.338H4.73932V6.56437ZM14.0497 7.7822H4.13482C3.79814 7.7822 3.52148 7.50585 3.52148 7.16887V4.72466C3.52148 4.38798 3.79784 4.11133 4.13482 4.11133H14.05C14.3866 4.11133 14.6545 4.38768 14.6545 4.72466V7.16887C14.6545 7.50585 14.3866 7.7822 14.0497 7.7822Z" fill="#548F6F"/>
<path d="M4.62794 22.085C4.29126 22.085 4.02344 21.8172 4.02344 21.4805C4.02344 21.1438 4.29126 20.8672 4.62794 20.8672H13.5583C13.895 20.8672 14.1717 21.1435 14.1717 21.4805C14.1717 21.8175 13.8953 22.085 13.5583 22.085H4.62794Z" fill="#548F6F"/>
</g>
<defs>
<clipPath id="clip0_757_44">
<rect width="39" height="39" fill="white"/>
</clipPath>
</defs>
</svg>
