<svg width="11" height="11" viewBox="0 0 11 11" fill="none" xmlns="http://www.w3.org/2000/svg">
<g opacity="0.7" clip-path="url(#clip0_1287_11)">
<path d="M5.30571 5.29875C6.03366 5.29875 6.66401 5.03767 7.17905 4.52254C7.69408 4.00751 7.95517 3.37733 7.95517 2.64929C7.95517 1.92151 7.69408 1.29124 7.17896 0.776039C6.66384 0.261086 6.03358 0 5.30571 0C4.57767 0 3.94749 0.261086 3.43246 0.776123C2.91742 1.29116 2.65625 1.92142 2.65625 2.64929C2.65625 3.37733 2.91742 4.00759 3.43254 4.52263C3.94766 5.03758 4.57793 5.29875 5.30571 5.29875Z" fill="white"/>
<path d="M9.94023 8.45849C9.92538 8.24415 9.89534 8.01034 9.85111 7.76344C9.80646 7.51469 9.74897 7.27954 9.68016 7.06461C9.60907 6.84247 9.51239 6.6231 9.39289 6.41287C9.26885 6.19467 9.12316 6.00467 8.95968 5.84832C8.78873 5.68475 8.57942 5.55324 8.33739 5.45732C8.09619 5.3619 7.8289 5.31356 7.54297 5.31356C7.43068 5.31356 7.32209 5.35963 7.11236 5.49618C6.98329 5.58035 6.83231 5.6777 6.6638 5.78538C6.5197 5.87719 6.3245 5.96321 6.08338 6.04109C5.84815 6.11721 5.6093 6.15581 5.37356 6.15581C5.13782 6.15581 4.89906 6.11721 4.66357 6.04109C4.42272 5.96329 4.22751 5.87727 4.08358 5.78546C3.91666 5.67879 3.7656 5.58144 3.63459 5.49609C3.42512 5.35955 3.31644 5.31348 3.20415 5.31348C2.91814 5.31348 2.65093 5.3619 2.40982 5.4574C2.16796 5.55316 1.95857 5.68467 1.78745 5.8484C1.62405 6.00483 1.47828 6.19475 1.35441 6.41287C1.23498 6.6231 1.1383 6.84239 1.06714 7.0647C0.998405 7.27962 0.940917 7.51469 0.89627 7.76344C0.852043 8.01001 0.821998 8.2439 0.807144 8.45874C0.792541 8.66922 0.785156 8.88767 0.785156 9.10831C0.785156 9.68251 0.967689 10.1474 1.32763 10.4902C1.68313 10.8285 2.15352 11.0001 2.72554 11.0001H8.02209C8.59411 11.0001 9.06433 10.8286 9.41991 10.4902C9.77994 10.1476 9.96247 9.68268 9.96247 9.10822C9.96239 8.88658 9.95492 8.66796 9.94023 8.45849Z" fill="white"/>
</g>
<defs>
<clipPath id="clip0_1287_11">
<rect width="11" height="11" fill="white"/>
</clipPath>
</defs>
</svg>
