<svg width="17" height="17" viewBox="0 0 17 17" fill="none" xmlns="http://www.w3.org/2000/svg">
<path d="M14.9968 14.0748L14.9966 14.075C14.9729 14.1089 14.8955 14.2182 14.849 14.2769C14.6273 14.5557 14.1156 15.1989 13.4055 15.7657L13.499 15.8829L13.4054 15.7657C12.4966 16.491 11.5729 16.85 10.6582 16.85C9.74352 16.85 8.81977 16.491 7.91096 15.7657L7.81739 15.8829L7.91095 15.7657C7.20082 15.1989 6.68908 14.5556 6.46751 14.2769L6.3501 14.3702L6.46751 14.2769C6.42101 14.2184 6.34367 14.1089 6.31963 14.0747C6.19506 13.8974 6.19506 13.661 6.31963 13.4837C6.34367 13.4495 6.42101 13.3401 6.46751 13.2816L6.3501 13.1883L6.46751 13.2816C6.68907 13.0029 7.20081 12.3597 7.91095 11.7929L7.81739 11.6757L7.91096 11.7929C8.81977 11.0676 9.74352 10.7086 10.6582 10.7086C11.5729 10.7086 12.4966 11.0676 13.4054 11.7929L13.499 11.6757L13.4055 11.7929C14.1156 12.3597 14.6273 13.003 14.8489 13.2817L14.9663 13.1884L14.8489 13.2817C14.8954 13.3402 14.9727 13.4496 14.9968 13.4838C15.1214 13.6611 15.1214 13.8975 14.9968 14.0748ZM13.8491 13.8758L13.9302 13.7793L13.8491 13.6828C12.7832 12.4147 11.7112 11.7367 10.6582 11.7367C9.60537 11.7367 8.53325 12.4145 7.46729 13.6828L7.38617 13.7793L7.46729 13.8758C8.53325 15.1439 9.60524 15.8219 10.6582 15.8219C11.7112 15.8219 12.7832 15.1441 13.8491 13.8758ZM6.09219 16.3359C6.09219 16.6199 5.86207 16.85 5.57812 16.85H2.65625C1.27439 16.85 0.15 15.7256 0.15 14.3438V2.65625C0.15 1.27439 1.27439 0.15 2.65625 0.15H10.8206C12.2023 0.15 13.3268 1.2744 13.3268 2.65625V8.99805C13.3268 9.28198 13.0966 9.51211 12.8128 9.51211C12.5288 9.51211 12.2987 9.28199 12.2987 8.99805V2.65625C12.2987 1.84112 11.6357 1.17813 10.8206 1.17813H2.65625C1.84112 1.17813 1.17813 1.84112 1.17813 2.65625V14.3438C1.17813 15.1589 1.84112 15.8219 2.65625 15.8219H5.57812C5.86207 15.8219 6.09219 16.052 6.09219 16.3359ZM3.31668 4.13438H10.1565C10.4404 4.13438 10.6706 4.36451 10.6706 4.64844C10.6706 4.93237 10.4404 5.1625 10.1565 5.1625H3.31668C3.03273 5.1625 2.80262 4.93239 2.80262 4.64844C2.80262 4.36449 3.03273 4.13438 3.31668 4.13438ZM10.1565 6.79063C10.4404 6.79063 10.6706 7.02076 10.6706 7.30469C10.6706 7.58862 10.4404 7.81875 10.1565 7.81875H3.31668C3.03273 7.81875 2.80262 7.58864 2.80262 7.30469C2.80262 7.02074 3.03273 6.79063 3.31668 6.79063H10.1565ZM2.80262 9.96094C2.80262 9.67699 3.03273 9.44687 3.31668 9.44687H6.80664C7.09059 9.44687 7.3207 9.67699 7.3207 9.96094C7.3207 10.2449 7.09059 10.475 6.80664 10.475H3.31668C3.03273 10.475 2.80262 10.2449 2.80262 9.96094ZM9.57969 13.7793C9.57969 13.1653 10.0774 12.6676 10.6914 12.6676C11.3054 12.6676 11.8031 13.1653 11.8031 13.7793C11.8031 14.3933 11.3054 14.891 10.6914 14.891C10.0774 14.891 9.57969 14.3933 9.57969 13.7793Z" fill="#FF4C60" stroke="white" stroke-width="0.3"/>
</svg>
