<svg width="43" height="39" viewBox="0 0 43 39" fill="none" xmlns="http://www.w3.org/2000/svg">
<path d="M36.1227 19.201C36.1227 19.4179 36.1266 19.7273 36.1266 19.9965V20.0487C36.1266 20.1532 36.1266 20.2496 36.1227 20.33V20.334C36.1188 20.4545 36.1148 20.5791 36.1109 20.7157C36.0206 23.733 35.6004 26.3646 34.866 28.6065C34.1316 30.8483 33.083 32.7005 31.7242 34.1911C30.4832 35.5491 29.0144 36.6138 27.3021 37.3972C25.5898 38.1807 23.6302 38.6829 21.4191 38.8878C21.4034 38.8918 21.3838 38.8958 21.3681 38.8998C20.614 38.9641 19.8325 39.0003 19.0235 39.0003H17.162C14.3462 39.0003 11.8799 38.5945 9.7631 37.799C7.64239 37.0035 5.86728 35.8223 4.41028 34.2433C2.95721 32.6724 1.85758 30.6796 1.11926 28.2449C0.377014 25.8101 0 22.9254 0 19.5987C0 16.252 0.377014 13.3472 1.11533 10.8883C1.85365 8.42948 2.95328 6.4166 4.40635 4.82559C5.86729 3.22653 7.64239 2.02926 9.7631 1.22571C11.6757 0.498505 13.8749 0.096733 16.3648 0.0244141C15.9563 0.17307 15.5558 0.329761 15.1709 0.50654C13.3251 1.33821 11.7189 2.49129 10.3757 3.94571C8.83235 5.61306 7.67381 7.69424 6.89229 10.1732C6.11077 12.6481 5.70234 15.5167 5.65521 18.7791C5.65129 18.984 5.65129 19.197 5.65129 19.4179C5.65129 19.6349 5.65521 19.8478 5.65521 20.0568V20.0608C5.68663 21.7522 5.84765 23.283 6.13041 24.649C6.23644 25.1834 6.35426 25.6976 6.49564 26.1798C6.93942 27.6784 7.56778 28.9319 8.40428 29.9243C9.32718 31.0211 10.5407 31.8407 12.0095 32.3751C12.6889 32.6202 13.4272 32.809 14.2127 32.9416C14.2716 32.9496 14.3305 32.9617 14.3855 32.9697C14.4208 32.9737 14.4561 32.9777 14.4876 32.9858C15.3084 33.1063 16.1763 33.1666 17.107 33.1706H18.9685C19.1963 33.1706 19.4241 33.1666 19.644 33.1585C20.3234 33.1425 20.9675 33.0822 21.5801 32.9938H21.5841C22.8918 32.805 24.0582 32.4594 25.0793 31.9452C26.1043 31.4309 26.9801 30.7439 27.6909 29.9002C28.6295 28.7953 29.3089 27.369 29.7566 25.6414C30.2043 23.9138 30.4243 21.8808 30.4243 19.5425C30.4243 17.2082 30.2083 15.1752 29.7645 13.4436C29.3207 11.716 28.6492 10.2816 27.7263 9.1607C27.0194 8.30895 26.1475 7.6179 25.1186 7.09961C25.0793 7.08354 25.04 7.06747 25.0008 7.04738H25.8294C26.7405 7.04738 27.5849 7.11167 28.3625 7.22416C28.3821 7.22818 28.4057 7.22818 28.4292 7.2322C28.4803 7.24023 28.5353 7.25229 28.5863 7.26032C28.7159 7.28041 28.8377 7.30452 28.9633 7.32862C29.038 7.3447 29.1086 7.35675 29.1833 7.37282C29.2029 7.37684 29.2225 7.38487 29.2461 7.38889L29.2893 7.39693C29.3286 7.40496 29.3639 7.413 29.3953 7.42505C29.466 7.44112 29.5367 7.45719 29.6035 7.47728C29.7881 7.52549 29.9687 7.57772 30.1454 7.63397C30.1808 7.64602 30.2122 7.65406 30.2475 7.66611C30.3654 7.70629 30.4832 7.74647 30.5971 7.78664C31.8931 8.27279 32.9141 8.98794 33.6996 9.93612C34.4458 10.8401 35.0466 12.0494 35.4668 13.5601C35.5611 13.8976 35.6475 14.2592 35.7221 14.6288C35.9224 15.6774 36.052 16.8466 36.0991 18.1443C36.103 18.2769 36.107 18.4015 36.1109 18.518V18.522C36.1148 18.5983 36.1148 18.6907 36.1148 18.7952C36.1266 18.8956 36.1227 19.0081 36.1227 19.201Z" fill="#D99374"/>
<path d="M43 19.4176C43 22.7644 42.623 25.6692 41.8846 28.124C41.1463 30.5829 40.0467 32.5957 38.5936 34.1868C37.1327 35.7858 35.3576 36.9831 33.2369 37.7866C31.2968 38.5219 29.0622 38.9237 26.5409 38.9879C26.9612 38.8353 27.3774 38.6705 27.7819 38.4857C29.6277 37.642 31.2301 36.4769 32.5771 35.0024C34.0655 33.3792 35.1966 31.3623 35.9702 28.9838C36.7517 26.6053 37.1798 23.8612 37.278 20.7555V20.7515C37.2819 20.635 37.2859 20.5064 37.2898 20.3658C37.2898 20.3618 37.2898 20.3618 37.2898 20.3618C37.2937 20.2493 37.2937 20.1489 37.2937 20.0605V19.9962C37.2937 19.719 37.2898 19.4056 37.2898 19.2007C37.2898 19.0199 37.2937 18.9194 37.2937 18.7909V18.7748C37.2937 18.6904 37.2937 18.59 37.2898 18.4775V18.4735C37.2898 18.4735 37.2898 18.4735 37.2898 18.4694C37.2859 18.3328 37.2819 18.2083 37.278 18.0918V18.0837C37.2034 16.0789 36.9481 14.3312 36.5083 12.8326C36.0684 11.334 35.4361 10.0805 34.5996 9.08808C33.6767 7.99124 32.4632 7.17564 30.9944 6.63727C29.5296 6.10291 27.8094 5.84578 25.838 5.84176H23.9765C23.0693 5.84176 22.2131 5.90203 21.4159 6.01854H21.412C20.1042 6.20737 18.9378 6.5529 17.9167 7.06717C16.8957 7.58143 16.016 8.26846 15.3051 9.11218C14.3704 10.2171 13.6871 11.6433 13.2394 13.371C12.7917 15.0986 12.5718 17.1315 12.5718 19.4699C12.5718 21.8042 12.7878 23.8371 13.2316 25.5688C13.6753 27.2964 14.3469 28.7307 15.2659 29.8516C15.9728 30.7034 16.8446 31.3944 17.8735 31.9127C17.9128 31.9288 17.9521 31.9449 17.9914 31.965H17.1117C15.2659 31.965 13.691 31.7118 12.3951 31.2257C11.0991 30.7396 10.078 30.0244 9.29254 29.0762C8.54636 28.1722 7.94157 26.9629 7.52135 25.4522C7.10114 23.9416 6.85765 22.1256 6.81838 20.0243C6.81445 19.8154 6.81445 19.6105 6.81445 19.4056C6.81445 19.1967 6.81838 18.9877 6.81838 18.7828C6.86158 15.6129 7.26216 12.8607 8.00048 10.5264C8.7388 8.19213 9.81486 6.27568 11.2208 4.75296C12.4618 3.41104 13.9306 2.3584 15.6429 1.58298C17.3551 0.807561 19.3148 0.313382 21.5259 0.108478C22.3113 0.0361595 23.1282 0 23.9765 0H25.838C28.6538 0 31.1201 0.401772 33.2369 1.19728C35.3576 1.99279 37.1327 3.174 38.5936 4.75296C39.3162 5.54043 39.9564 6.42835 40.5062 7.42876C41.056 8.42917 41.5194 9.53405 41.8886 10.7514C42.6269 13.2062 43 16.091 43 19.4176Z" fill="#D99374"/>
</svg>
