<svg width="42" height="36" viewBox="0 0 42 36" fill="none" xmlns="http://www.w3.org/2000/svg">
<path d="M34.5158 17.7237C34.5158 17.924 34.5195 18.2096 34.5195 18.458V18.5062C34.5195 18.6027 34.5195 18.6917 34.5158 18.7659V18.7696C34.512 18.8808 34.5083 18.9958 34.5045 19.1219C34.4182 21.9071 34.0167 24.3363 33.315 26.4057C32.6133 28.4751 31.6113 30.1848 30.313 31.5607C29.1272 32.8143 27.7237 33.7971 26.0876 34.5203C24.4515 35.2434 22.579 35.707 20.4663 35.8962C20.4513 35.8999 20.4325 35.9036 20.4175 35.9073C19.697 35.9666 18.9503 36 18.1773 36H16.3986C13.708 36 11.3514 35.6254 9.3288 34.8911C7.30243 34.1568 5.60628 33.0665 4.21409 31.609C2.82566 30.1589 1.77495 28.3194 1.06947 26.0719C0.360243 23.8245 0 21.1616 0 18.0909C0 15.0016 0.360243 12.3202 1.06572 10.0505C1.7712 7.78079 2.8219 5.92275 4.21034 4.45412C5.60628 2.97807 7.30243 1.87289 9.3288 1.13116C11.1563 0.459887 13.2577 0.0890204 15.6368 0.0222645C15.2465 0.159485 14.8638 0.304123 14.496 0.467304C12.7323 1.235 11.1976 2.29938 9.91419 3.64192C8.43945 5.18102 7.33245 7.1021 6.58569 9.39035C5.83894 11.6749 5.44868 14.3229 5.40365 17.3343C5.39989 17.5234 5.39989 17.72 5.39989 17.924C5.39989 18.1243 5.40365 18.3208 5.40365 18.5137V18.5174C5.43367 20.0787 5.58752 21.4917 5.8577 22.7527C5.95902 23.2459 6.0716 23.7206 6.20669 24.1657C6.63072 25.549 7.23113 26.7061 8.03042 27.6221C8.91226 28.6346 10.0718 29.3912 11.4752 29.8844C12.1244 30.1107 12.8299 30.285 13.5804 30.4073C13.6367 30.4148 13.693 30.4259 13.7455 30.4333C13.7793 30.437 13.8131 30.4407 13.8431 30.4481C14.6274 30.5594 15.4567 30.615 16.346 30.6187H18.1247C18.3424 30.6187 18.56 30.615 18.7702 30.6076C19.4194 30.5928 20.0348 30.5372 20.6202 30.4556H20.6239C21.8735 30.2813 22.988 29.9623 23.9637 29.4876C24.9431 29.0129 25.7799 28.3787 26.4591 27.5999C27.356 26.58 28.0051 25.2634 28.4329 23.6687C28.8607 22.074 29.0709 20.1974 29.0709 18.039C29.0709 15.8842 28.8645 14.0076 28.4404 12.4092C28.0164 10.8145 27.3747 9.49048 26.4929 8.45577C25.8174 7.66953 24.9844 7.03164 24.0012 6.55322C23.9637 6.53839 23.9261 6.52355 23.8886 6.50501H24.6804C25.551 6.50501 26.3578 6.56435 27.1008 6.66819C27.1196 6.6719 27.1421 6.6719 27.1646 6.67561C27.2134 6.68302 27.2659 6.69415 27.3147 6.70157C27.4385 6.72011 27.5548 6.74236 27.6749 6.76462C27.7462 6.77945 27.8138 6.79058 27.8851 6.80541C27.9038 6.80912 27.9226 6.81654 27.9451 6.82025L27.9864 6.82766C28.0239 6.83508 28.0577 6.8425 28.0877 6.85362C28.1552 6.86846 28.2228 6.88329 28.2866 6.90184C28.463 6.94634 28.6356 6.99455 28.8044 7.04647C28.8382 7.0576 28.8682 7.06502 28.902 7.07614C29.0146 7.11323 29.1272 7.15032 29.236 7.1874C30.4743 7.63615 31.45 8.29629 32.2005 9.17154C32.9135 10.006 33.4876 11.1223 33.8891 12.5168C33.9792 12.8283 34.0617 13.1621 34.133 13.5033C34.3244 14.4712 34.4482 15.5504 34.4933 16.7483C34.497 16.8707 34.5008 16.9857 34.5045 17.0932V17.097C34.5083 17.1674 34.5083 17.2527 34.5083 17.3491C34.5195 17.4419 34.5158 17.5457 34.5158 17.7237Z" fill="#FF4C60"/>
<path d="M41.0865 17.924C41.0865 21.0133 40.7263 23.6947 40.0208 25.9606C39.3153 28.2304 38.2646 30.0884 36.8762 31.557C35.4802 33.0331 33.7841 34.1383 31.7577 34.88C29.904 35.5587 27.7688 35.9295 25.3597 35.9889C25.7612 35.8479 26.1589 35.6959 26.5455 35.5253C28.3091 34.7465 29.8402 33.671 31.1273 32.3099C32.5495 30.8116 33.6302 28.9498 34.3695 26.7543C35.1162 24.5588 35.5253 22.0258 35.6191 19.159V19.1553C35.6228 19.0477 35.6266 18.929 35.6303 18.7992C35.6303 18.7955 35.6303 18.7955 35.6303 18.7955C35.6341 18.6917 35.6341 18.599 35.6341 18.5174V18.458C35.6341 18.2021 35.6303 17.9128 35.6303 17.7237C35.6303 17.5568 35.6341 17.4641 35.6341 17.3454V17.3306C35.6341 17.2527 35.6341 17.16 35.6303 17.0561V17.0524C35.6303 17.0524 35.6303 17.0524 35.6303 17.0487C35.6266 16.9226 35.6228 16.8077 35.6191 16.7001V16.6927C35.5478 14.8421 35.3039 13.2288 34.8836 11.8455C34.4633 10.4621 33.8591 9.30504 33.0598 8.389C32.178 7.37653 31.0185 6.62367 29.615 6.12671C28.2153 5.63346 26.5717 5.39611 24.6879 5.3924H22.9092C22.0424 5.3924 21.2244 5.44803 20.4626 5.55558H20.4588C19.2092 5.72989 18.0947 6.04883 17.1191 6.52354C16.1434 6.99825 15.3029 7.63243 14.6237 8.41125C13.7306 9.43113 13.0776 10.7477 12.6498 12.3424C12.222 13.9372 12.0119 15.8137 12.0119 17.9722C12.0119 20.1269 12.2183 22.0035 12.6423 23.6019C13.0664 25.1967 13.708 26.5207 14.5861 27.5554C15.2616 28.3416 16.0946 28.9795 17.0778 29.4579C17.1153 29.4728 17.1529 29.4876 17.1904 29.5061H16.3498C14.5861 29.5061 13.0814 29.2725 11.843 28.8237C10.6047 28.375 9.62904 27.7148 8.87853 26.8396C8.16555 26.0052 7.58766 24.8888 7.18614 23.4944C6.78462 22.0999 6.55196 20.4236 6.51443 18.484C6.51068 18.2911 6.51068 18.102 6.51068 17.9128C6.51068 17.72 6.51443 17.5271 6.51443 17.338C6.55571 14.4119 6.93847 11.8714 7.64395 9.7167C8.34942 7.56197 9.37762 5.79293 10.721 4.38735C11.9068 3.14866 13.3103 2.17699 14.9464 1.46121C16.5825 0.745442 18.455 0.289276 20.5677 0.100134C21.3182 0.033378 22.0987 0 22.9092 0H24.6879C27.3785 0 29.7351 0.370866 31.7577 1.10518C33.7841 1.8395 35.4802 2.92984 36.8762 4.38735C37.5666 5.11425 38.1783 5.93386 38.7037 6.85732C39.229 7.78078 39.6718 8.80066 40.0245 9.92439C40.73 12.1904 41.0865 14.8532 41.0865 17.924Z" fill="#FF4C60"/>
</svg>
