<svg width="170" height="36" viewBox="0 0 170 36" fill="none" xmlns="http://www.w3.org/2000/svg">
<path d="M34.5158 17.7239C34.5158 17.9242 34.5195 18.2097 34.5195 18.4582V18.5064C34.5195 18.6029 34.5195 18.6919 34.5158 18.766V18.7698C34.512 18.881 34.5083 18.996 34.5045 19.1221C34.4182 21.9073 34.0167 24.3365 33.315 26.4059C32.6133 28.4753 31.6113 30.185 30.313 31.5609C29.1272 32.8145 27.7237 33.7973 26.0876 34.5205C24.4515 35.2436 22.579 35.7072 20.4663 35.8964C20.4513 35.9001 20.4325 35.9038 20.4175 35.9075C19.697 35.9668 18.9503 36.0002 18.1773 36.0002H16.3986C13.708 36.0002 11.3514 35.6256 9.3288 34.8913C7.30243 34.157 5.60628 33.0667 4.21409 31.6092C2.82566 30.1591 1.77495 28.3196 1.06947 26.0721C0.360243 23.8247 0 21.1618 0 18.0911C0 15.0018 0.360243 12.3204 1.06572 10.0507C1.7712 7.78099 2.8219 5.92295 4.21034 4.45431C5.60628 2.97827 7.30243 1.87308 9.3288 1.13135C11.1563 0.460083 13.2577 0.0892169 15.6368 0.0224609C15.2465 0.159681 14.8638 0.304319 14.496 0.467501C12.7323 1.23519 11.1976 2.29958 9.91419 3.64212C8.43945 5.18121 7.33245 7.1023 6.58569 9.39055C5.83894 11.6751 5.44868 14.3231 5.40365 17.3345C5.39989 17.5236 5.39989 17.7202 5.39989 17.9242C5.39989 18.1244 5.40365 18.321 5.40365 18.5139V18.5176C5.43367 20.0789 5.58752 21.4919 5.8577 22.7529C5.95902 23.2461 6.0716 23.7208 6.20669 24.1659C6.63072 25.5492 7.23113 26.7063 8.03042 27.6223C8.91226 28.6348 10.0718 29.3914 11.4752 29.8846C12.1244 30.1109 12.8299 30.2852 13.5804 30.4075C13.6367 30.415 13.693 30.4261 13.7455 30.4335C13.7793 30.4372 13.8131 30.4409 13.8431 30.4483C14.6274 30.5596 15.4567 30.6152 16.346 30.6189H18.1247C18.3424 30.6189 18.56 30.6152 18.7702 30.6078C19.4194 30.593 20.0348 30.5373 20.6202 30.4558H20.6239C21.8735 30.2815 22.988 29.9625 23.9637 29.4878C24.9431 29.0131 25.7799 28.3789 26.4591 27.6001C27.356 26.5802 28.0051 25.2636 28.4329 23.6689C28.8607 22.0742 29.0709 20.1976 29.0709 18.0392C29.0709 15.8844 28.8645 14.0078 28.4404 12.4094C28.0164 10.8147 27.3747 9.49068 26.4929 8.45596C25.8174 7.66973 24.9844 7.03184 24.0012 6.55342C23.9637 6.53858 23.9261 6.52375 23.8886 6.50521H24.6804C25.551 6.50521 26.3578 6.56454 27.1008 6.66839C27.1196 6.6721 27.1421 6.67209 27.1646 6.6758C27.2134 6.68322 27.2659 6.69435 27.3147 6.70176C27.4385 6.72031 27.5548 6.74256 27.6749 6.76481C27.7462 6.77965 27.8138 6.79077 27.8851 6.80561C27.9038 6.80932 27.9226 6.81673 27.9451 6.82044L27.9864 6.82786C28.0239 6.83528 28.0577 6.84269 28.0877 6.85382C28.1552 6.86865 28.2228 6.88349 28.2866 6.90203C28.463 6.94654 28.6356 6.99475 28.8044 7.04667C28.8382 7.0578 28.8682 7.06521 28.902 7.07634C29.0146 7.11343 29.1272 7.15051 29.236 7.1876C30.4743 7.63635 31.45 8.29649 32.2005 9.17173C32.9135 10.0062 33.4876 11.1225 33.8891 12.5169C33.9792 12.8285 34.0617 13.1623 34.133 13.5035C34.3244 14.4714 34.4482 15.5506 34.4933 16.7485C34.497 16.8709 34.5008 16.9859 34.5045 17.0934V17.0971C34.5083 17.1676 34.5083 17.2529 34.5083 17.3493C34.5195 17.4421 34.5158 17.5459 34.5158 17.7239Z" fill="#FF4C60"/>
<path d="M41.0866 17.924C41.0866 21.0133 40.7263 23.6947 40.0209 25.9606C39.3154 28.2304 38.2647 30.0884 36.8762 31.557C35.4803 33.0331 33.7841 34.1383 31.7578 34.88C29.904 35.5587 27.7688 35.9295 25.3597 35.9889C25.7612 35.8479 26.159 35.6959 26.5455 35.5253C28.3092 34.7465 29.8402 33.671 31.1274 32.3099C32.5496 30.8116 33.6303 28.9498 34.3695 26.7543C35.1163 24.5588 35.5253 22.0258 35.6191 19.159V19.1553C35.6229 19.0477 35.6266 18.929 35.6304 18.7992C35.6304 18.7955 35.6304 18.7955 35.6304 18.7955C35.6341 18.6917 35.6341 18.599 35.6341 18.5174V18.458C35.6341 18.2021 35.6304 17.9128 35.6304 17.7237C35.6304 17.5568 35.6341 17.4641 35.6341 17.3454V17.3306C35.6341 17.2527 35.6341 17.16 35.6304 17.0561V17.0524C35.6304 17.0524 35.6304 17.0524 35.6304 17.0487C35.6266 16.9226 35.6229 16.8077 35.6191 16.7001V16.6927C35.5478 14.8421 35.3039 13.2288 34.8836 11.8455C34.4634 10.4621 33.8592 9.30504 33.0599 8.389C32.1781 7.37653 31.0185 6.62367 29.6151 6.12671C28.2154 5.63346 26.5718 5.39611 24.688 5.3924H22.9093C22.0425 5.3924 21.2244 5.44803 20.4627 5.55558H20.4589C19.2093 5.72989 18.0948 6.04883 17.1192 6.52354C16.1435 6.99825 15.3029 7.63243 14.6237 8.41125C13.7306 9.43113 13.0777 10.7477 12.6499 12.3424C12.2221 13.9372 12.012 15.8137 12.012 17.9722C12.012 20.1269 12.2183 22.0035 12.6424 23.6019C13.0664 25.1967 13.7081 26.5207 14.5862 27.5554C15.2616 28.3416 16.0947 28.9795 17.0779 29.4579C17.1154 29.4728 17.1529 29.4876 17.1904 29.5061H16.3499C14.5862 29.5061 13.0814 29.2725 11.8431 28.8237C10.6048 28.375 9.6291 27.7148 8.87859 26.8396C8.16561 26.0052 7.58772 24.8888 7.1862 23.4944C6.78468 22.0999 6.55202 20.4236 6.51449 18.484C6.51074 18.2911 6.51074 18.102 6.51074 17.9128C6.51074 17.72 6.51449 17.5271 6.51449 17.338C6.55577 14.4119 6.93853 11.8714 7.64401 9.7167C8.34948 7.56197 9.37768 5.79293 10.7211 4.38735C11.9069 3.14866 13.3103 2.17699 14.9464 1.46121C16.5825 0.745442 18.4551 0.289276 20.5677 0.100134C21.3182 0.033378 22.0988 0 22.9093 0H24.688C27.3786 0 29.7352 0.370866 31.7578 1.10518C33.7841 1.8395 35.4803 2.92984 36.8762 4.38735C37.5667 5.11425 38.1784 5.93386 38.7037 6.85732C39.2291 7.78078 39.6719 8.80066 40.0246 9.92439C40.7301 12.1904 41.0866 14.8532 41.0866 17.924Z" fill="#FF4C60"/>
<path d="M51.0377 12.0361C51.0377 11.0236 50.897 10.2792 50.6155 9.80278C50.334 9.30649 49.771 9.05835 48.9266 9.05835H48.625V8.16504H56.7679C59.3012 8.16504 61.4123 8.51244 63.1012 9.20724C64.8102 9.90203 65.6647 11.2916 65.6647 13.376C65.6647 14.2892 65.2927 15.1527 64.5488 15.9666C63.825 16.7607 62.7996 17.3264 61.4726 17.6639C64.8705 18.0014 66.5694 19.5696 66.5694 22.3687C66.5694 24.4332 65.7351 25.8625 64.0663 26.6566C62.3975 27.4308 60.2663 27.8179 57.6726 27.8179H51.0377V12.0361ZM57.2202 17.0684C58.5271 17.0684 59.5525 16.7706 60.2964 16.1751C61.0604 15.5597 61.4425 14.577 61.4425 13.2271C61.4425 11.8574 60.9901 10.8747 60.0853 10.2792C59.2007 9.66382 58.0948 9.35612 56.7679 9.35612C56.225 9.35612 55.8028 9.39582 55.5012 9.47523L54.9583 9.56456V17.0684H57.2202ZM57.2202 26.6268C58.889 26.6268 60.1557 26.2695 61.0202 25.5548C61.9049 24.8402 62.3472 23.8278 62.3472 22.5176C62.3472 19.7781 60.6382 18.4083 57.2202 18.4083H54.9583V26.329C55.1795 26.4084 55.3806 26.4581 55.5615 26.4779C56.0038 26.5772 56.5065 26.6268 57.0694 26.6268H57.2202Z" fill="#101010"/>
<path d="M69.5116 12.0361C69.5116 11.0236 69.3708 10.2792 69.0893 9.80278C68.8079 9.30649 68.2449 9.05835 67.4005 9.05835H67.0989V8.16504H70.7179C71.4417 8.16504 71.9946 8.28415 72.3766 8.52236C72.7587 8.76058 73.0301 9.15761 73.1909 9.71344C73.3518 10.2494 73.4322 11.0236 73.4322 12.0361V27.8179H69.5116V12.0361Z" fill="#101010"/>
<path d="M83.6805 28.1156C82.2128 28.1156 80.926 27.798 79.8202 27.1628C78.7345 26.5077 77.9001 25.6342 77.317 24.5424C76.734 23.4307 76.4424 22.19 76.4424 20.8203C76.4424 19.4505 76.734 18.2197 77.317 17.1279C77.9001 16.0162 78.7345 15.1428 79.8202 14.5075C80.926 13.8525 82.2128 13.5249 83.6805 13.5249C85.1482 13.5249 86.425 13.8525 87.5107 14.5075C88.6165 15.1428 89.4609 16.0162 90.044 17.1279C90.6271 18.2197 90.9186 19.4505 90.9186 20.8203C90.9186 22.19 90.6271 23.4307 90.044 24.5424C89.4609 25.6342 88.6165 26.5077 87.5107 27.1628C86.425 27.798 85.1482 28.1156 83.6805 28.1156ZM83.6805 26.7757C84.7059 26.7757 85.49 26.2298 86.0329 25.1379C86.5758 24.0461 86.8472 22.6069 86.8472 20.8203C86.8472 19.0337 86.5758 17.5944 86.0329 16.5026C85.49 15.4108 84.7059 14.8649 83.6805 14.8649C82.6551 14.8649 81.871 15.4108 81.3281 16.5026C80.7853 17.5944 80.5138 19.0337 80.5138 20.8203C80.5138 22.6069 80.7853 24.0461 81.3281 25.1379C81.871 26.2298 82.6551 26.7757 83.6805 26.7757Z" fill="#101010"/>
<path d="M99.8081 33.7733C97.5161 33.7733 95.7065 33.406 94.3796 32.6715C93.0727 31.9569 92.4192 30.7857 92.4192 29.1578C92.4192 28.1653 92.8214 27.3414 93.6256 26.6864C94.4298 26.0313 95.3848 25.5648 96.4907 25.2868C95.5859 25.0089 95.1335 24.463 95.1335 23.6491C95.1335 22.9741 95.5356 22.4779 96.3399 22.1602C95.4753 21.8625 94.7515 21.3463 94.1684 20.6118C93.6055 19.8773 93.324 19.0634 93.324 18.1701C93.324 16.5423 93.9071 15.3612 95.0732 14.6267C96.2594 13.8922 97.8378 13.5249 99.8081 13.5249H106.141V14.3289L103.427 14.6862C104.272 15.0038 104.955 15.4902 105.478 16.1453C106.021 16.8004 106.292 17.4753 106.292 18.1701C106.292 19.7979 105.729 20.9692 104.603 21.6838C103.498 22.3985 101.899 22.7558 99.8081 22.7558C98.7626 22.7558 97.9986 22.8153 97.5161 22.9344C97.0335 23.0337 96.7923 23.2719 96.7923 23.6491C96.7923 23.9667 97.0335 24.1752 97.5161 24.2744C97.9986 24.3737 98.7626 24.4332 99.8081 24.4531C101.98 24.4928 103.749 24.9196 105.116 25.7335C106.503 26.5275 107.197 27.669 107.197 29.1578C107.197 30.7857 106.534 31.9569 105.207 32.6715C103.9 33.406 102.1 33.7733 99.8081 33.7733ZM99.8081 21.5647C101.417 21.5647 102.221 20.4332 102.221 18.1701C102.221 17.0584 102 16.2048 101.557 15.6093C101.115 15.0138 100.532 14.716 99.8081 14.716C99.0642 14.716 98.4711 15.0038 98.0288 15.5795C97.6065 16.1552 97.3954 17.0187 97.3954 18.1701C97.3954 20.4332 98.1997 21.5647 99.8081 21.5647ZM99.8081 32.4333C100.854 32.4333 101.668 32.1554 102.251 31.5996C102.834 31.0636 103.126 30.2497 103.126 29.1578C103.126 28.2844 102.844 27.5598 102.281 26.9841C101.738 26.3886 100.994 26.0015 100.049 25.8228L98.6319 25.6739C97.9282 25.9717 97.3954 26.3985 97.0335 26.9543C96.6716 27.5102 96.4907 28.2447 96.4907 29.1578C96.4907 30.2497 96.7822 31.0636 97.3653 31.5996C97.9483 32.1554 98.7626 32.4333 99.8081 32.4333Z" fill="#101010"/>
<path d="M115.715 18.5572L111.432 12.0361C110.91 11.2023 110.266 10.4678 109.502 9.83255C108.738 9.19731 108.035 8.83998 107.391 8.76058V8.16504H110.709C111.734 8.16504 112.659 8.48266 113.483 9.1179C114.328 9.75315 115.041 10.5274 115.624 11.4405L118.248 15.4306L124.069 8.16504H126.029L119.123 16.7706L123.858 23.9469C124.381 24.7806 125.024 25.5151 125.788 26.1504C126.552 26.7856 127.256 27.1429 127.899 27.2223V27.8179H124.582C123.556 27.8179 122.621 27.5003 121.777 26.865C120.953 26.2298 120.249 25.4556 119.666 24.5424L116.62 19.8972L110.256 27.8179H108.296L115.715 18.5572Z" fill="#101010"/>
<path d="M133.831 28.1156C132.444 28.1156 131.368 27.7484 130.604 27.0139C129.84 26.2595 129.458 25.1776 129.458 23.7682V15.1626H127.649V13.8227H129.458V11.1427L130.966 9.35612H133.379V13.8227H136.696V15.1626H133.379V23.9469C133.379 25.0188 133.509 25.7633 133.771 26.1801C134.032 26.5772 134.424 26.7757 134.947 26.7757C135.51 26.7757 136.073 26.6466 136.636 26.3886C136.857 26.2695 137.088 26.1305 137.33 25.9717L137.752 26.8055C137.49 27.0238 137.179 27.2422 136.817 27.4606C135.972 27.8973 134.977 28.1156 133.831 28.1156Z" fill="#101010"/>
<path d="M146.001 28.1156C144.533 28.1156 143.246 27.798 142.14 27.1628C141.055 26.5077 140.22 25.6342 139.637 24.5424C139.054 23.4307 138.763 22.19 138.763 20.8203C138.763 19.4505 139.054 18.2197 139.637 17.1279C140.22 16.0162 141.055 15.1428 142.14 14.5075C143.246 13.8525 144.533 13.5249 146.001 13.5249C147.468 13.5249 148.745 13.8525 149.831 14.5075C150.937 15.1428 151.781 16.0162 152.364 17.1279C152.947 18.2197 153.239 19.4505 153.239 20.8203C153.239 22.19 152.947 23.4307 152.364 24.5424C151.781 25.6342 150.937 26.5077 149.831 27.1628C148.745 27.798 147.468 28.1156 146.001 28.1156ZM146.001 26.7757C147.026 26.7757 147.81 26.2298 148.353 25.1379C148.896 24.0461 149.167 22.6069 149.167 20.8203C149.167 19.0337 148.896 17.5944 148.353 16.5026C147.81 15.4108 147.026 14.8649 146.001 14.8649C144.975 14.8649 144.191 15.4108 143.648 16.5026C143.105 17.5944 142.834 19.0337 142.834 20.8203C142.834 22.6069 143.105 24.0461 143.648 25.1379C144.191 26.2298 144.975 26.7757 146.001 26.7757Z" fill="#101010"/>
<path d="M156.73 17.6937C156.73 16.6813 156.589 15.9368 156.308 15.4604C156.046 14.9641 155.493 14.716 154.649 14.716H154.347V13.8227H157.333C158.017 13.8227 158.549 13.912 158.931 14.0907C159.334 14.2495 159.645 14.5274 159.866 14.9244C160.892 13.9914 162.36 13.5249 164.27 13.5249C166.18 13.5249 167.607 13.9716 168.552 14.8649C169.517 15.7383 170 17.118 170 19.0039V27.8179H166.079V18.9741C166.079 17.6044 165.818 16.6019 165.295 15.9666C164.792 15.3314 164.099 15.0138 163.214 15.0138C162.591 15.0138 162.038 15.1031 161.555 15.2817C161.093 15.4406 160.721 15.6589 160.439 15.9368L160.53 16.3537C160.61 16.5919 160.651 16.979 160.651 17.515V27.8179H156.73V17.6937Z" fill="#101010"/>
</svg>
